<svg xmlns="http://www.w3.org/2000/svg" xmlns:xlink="http://www.w3.org/1999/xlink" width="1134" zoomAndPan="magnify" viewBox="0 0 850.07996 708.749996" height="945" preserveAspectRatio="xMidYMid meet" version="1.0"><defs><g/><clipPath id="e93ad8cd66"><path d="M 346.453125 291.847656 L 427.90625 291.847656 L 427.90625 373.300781 L 346.453125 373.300781 Z M 346.453125 291.847656 " clip-rule="nonzero"/></clipPath><clipPath id="32c862600f"><path d="M 387.179688 291.847656 C 364.6875 291.847656 346.453125 310.082031 346.453125 332.574219 C 346.453125 355.066406 364.6875 373.300781 387.179688 373.300781 C 409.671875 373.300781 427.90625 355.066406 427.90625 332.574219 C 427.90625 310.082031 409.671875 291.847656 387.179688 291.847656 Z M 387.179688 291.847656 " clip-rule="nonzero"/></clipPath></defs><g fill="#01a75c" fill-opacity="1"><g transform="translate(632.510121, 159.384416)"><g><path d="M -372.984375 48.3125 C -364.671875 40 -353.328125 31.769531 -338.953125 23.625 C -324.585938 15.488281 -308.050781 8.648438 -289.34375 3.109375 C -270.644531 -2.421875 -250.734375 -5.1875 -229.609375 -5.1875 C -203.285156 -5.1875 -178.695312 -0.773438 -155.84375 8.046875 C -132.988281 16.878906 -112.988281 29.429688 -95.84375 45.703125 C -78.695312 61.984375 -65.363281 81.640625 -55.84375 104.671875 C -46.320312 127.703125 -41.5625 153.414062 -41.5625 181.8125 C -41.5625 208.476562 -46.582031 233.066406 -56.625 255.578125 C -66.664062 278.097656 -80.601562 297.664062 -98.4375 314.28125 C -116.28125 330.90625 -136.628906 343.804688 -159.484375 352.984375 C -182.335938 362.160156 -206.578125 366.75 -232.203125 366.75 C -253.679688 366.75 -273.859375 363.71875 -292.734375 357.65625 C -311.609375 351.601562 -328.40625 343.898438 -343.125 334.546875 C -357.84375 325.191406 -369.53125 315.320312 -378.1875 304.9375 L -342.34375 262.34375 C -327.101562 276.539062 -310.21875 288.226562 -291.6875 297.40625 C -273.15625 306.582031 -252.632812 311.171875 -230.125 311.171875 C -207.96875 311.171875 -186.84375 305.972656 -166.75 295.578125 C -146.664062 285.191406 -130.300781 270.300781 -117.65625 250.90625 C -105.019531 231.507812 -98.703125 208.476562 -98.703125 181.8125 C -98.703125 152.726562 -105.191406 128.488281 -118.171875 109.09375 C -131.160156 89.695312 -148.128906 75.0625 -169.078125 65.1875 C -190.035156 55.320312 -212.640625 50.390625 -236.890625 50.390625 C -261.472656 50.390625 -282.769531 55.148438 -300.78125 64.671875 C -318.789062 74.203125 -333.679688 84.160156 -345.453125 94.546875 Z M -372.984375 48.3125 "/></g></g></g><g fill="#2c9600" fill-opacity="1"><g transform="translate(263.174951, 448.826197)"><g><path d="M 222.578125 -28.828125 C 217.617188 -23.867188 210.847656 -18.957031 202.265625 -14.09375 C 193.691406 -9.238281 183.828125 -5.160156 172.671875 -1.859375 C 161.515625 1.441406 149.628906 3.09375 137.015625 3.09375 C 121.304688 3.09375 106.632812 0.460938 93 -4.796875 C 79.363281 -10.066406 67.425781 -17.554688 57.1875 -27.265625 C 46.957031 -36.984375 39 -48.710938 33.3125 -62.453125 C 27.632812 -76.203125 24.796875 -91.550781 24.796875 -108.5 C 24.796875 -124.414062 27.789062 -139.085938 33.78125 -152.515625 C 39.78125 -165.953125 48.097656 -177.628906 58.734375 -187.546875 C 69.378906 -197.472656 81.519531 -205.171875 95.15625 -210.640625 C 108.800781 -216.117188 123.269531 -218.859375 138.5625 -218.859375 C 151.382812 -218.859375 163.425781 -217.050781 174.6875 -213.4375 C 185.945312 -209.820312 195.96875 -205.222656 204.75 -199.640625 C 213.539062 -194.054688 220.519531 -188.164062 225.6875 -181.96875 L 204.296875 -156.546875 C 195.203125 -165.023438 185.125 -172 174.0625 -177.46875 C 163.007812 -182.945312 150.765625 -185.6875 137.328125 -185.6875 C 124.097656 -185.6875 111.488281 -182.585938 99.5 -176.390625 C 87.519531 -170.191406 77.757812 -161.304688 70.21875 -149.734375 C 62.675781 -138.160156 58.90625 -124.414062 58.90625 -108.5 C 58.90625 -91.132812 62.78125 -76.664062 70.53125 -65.09375 C 78.28125 -53.519531 88.40625 -44.785156 100.90625 -38.890625 C 113.40625 -33.003906 126.890625 -30.0625 141.359375 -30.0625 C 156.035156 -30.0625 168.742188 -32.90625 179.484375 -38.59375 C 190.234375 -44.28125 199.125 -50.222656 206.15625 -56.421875 Z M 222.578125 -28.828125 "/></g></g></g><g clip-path="url(#e93ad8cd66)"><g clip-path="url(#32c862600f)"><path fill="#ff914d" d="M 346.453125 291.847656 L 427.90625 291.847656 L 427.90625 373.300781 L 346.453125 373.300781 Z M 346.453125 291.847656 " fill-opacity="1" fill-rule="nonzero"/></g></g></svg>