<svg xmlns="http://www.w3.org/2000/svg" xmlns:xlink="http://www.w3.org/1999/xlink" width="1134" zoomAndPan="magnify" viewBox="0 0 850.07996 708.749996" height="945" preserveAspectRatio="xMidYMid meet" version="1.0"><defs><g/><clipPath id="2ce7d8d2e2"><path d="M 36.796875 295.402344 L 154.34375 295.402344 L 154.34375 412.988281 L 36.796875 412.988281 Z M 36.796875 295.402344 " clip-rule="nonzero"/></clipPath><clipPath id="b4c702e090"><path d="M 49.886719 308.492188 L 141.226562 308.492188 L 141.226562 399.890625 L 49.886719 399.890625 Z M 49.886719 308.492188 " clip-rule="nonzero"/></clipPath><clipPath id="8dee30bcd7"><path d="M 64.285156 322.894531 L 126.910156 322.894531 L 126.910156 385.515625 L 64.285156 385.515625 Z M 64.285156 322.894531 " clip-rule="nonzero"/></clipPath><clipPath id="c60017debd"><path d="M 95.597656 322.894531 L 126.910156 354.207031 L 95.597656 385.515625 L 64.285156 354.207031 Z M 95.597656 322.894531 " clip-rule="nonzero"/></clipPath></defs><g clip-path="url(#2ce7d8d2e2)"><path fill="#01a75c" d="M 97.226562 297.035156 L 154.382812 354.195312 L 95.589844 412.988281 L 36.796875 354.195312 L 95.589844 295.402344 Z M 121.714844 328.070312 L 95.589844 301.941406 L 43.339844 354.195312 L 95.589844 406.445312 L 147.839844 354.195312 L 121.714844 328.070312 " fill-opacity="1" fill-rule="nonzero"/></g><g clip-path="url(#b4c702e090)"><path fill="#00bf63" d="M 96.863281 309.761719 L 141.300781 354.199219 L 95.59375 399.90625 L 49.886719 354.199219 L 95.59375 308.492188 Z M 115.902344 333.886719 L 95.59375 313.578125 L 54.972656 354.199219 L 95.59375 394.820312 L 136.214844 354.199219 L 115.902344 333.886719 " fill-opacity="1" fill-rule="nonzero"/></g><g clip-path="url(#8dee30bcd7)"><g clip-path="url(#c60017debd)"><path fill="#01a75c" d="M 64.285156 322.894531 L 126.910156 322.894531 L 126.910156 385.515625 L 64.285156 385.515625 Z M 64.285156 322.894531 " fill-opacity="1" fill-rule="nonzero"/></g></g><g fill="#002a69" fill-opacity="1"><g transform="translate(154.492004, 405.398916)"><g><path d="M 59.796875 -95.5625 C 67.710938 -95.5625 74.671875 -94.304688 80.671875 -91.796875 C 86.679688 -89.296875 91.734375 -85.835938 95.828125 -81.421875 C 99.929688 -77.015625 103.003906 -71.921875 105.046875 -66.140625 C 107.097656 -60.359375 108.125 -54.238281 108.125 -47.78125 C 108.125 -39.039062 106.300781 -31.050781 102.65625 -23.8125 C 99.019531 -16.582031 93.601562 -10.804688 86.40625 -6.484375 C 79.21875 -2.160156 70.347656 0 59.796875 0 L 18.015625 0 L 18.015625 -95.5625 Z M 59.109375 -14.203125 C 67.023438 -14.203125 73.460938 -15.722656 78.421875 -18.765625 C 83.390625 -21.816406 87.03125 -25.867188 89.34375 -30.921875 C 91.664062 -35.972656 92.828125 -41.59375 92.828125 -47.78125 C 92.828125 -53.789062 91.664062 -59.34375 89.34375 -64.4375 C 87.03125 -69.53125 83.367188 -73.625 78.359375 -76.71875 C 73.359375 -79.8125 66.941406 -81.359375 59.109375 -81.359375 L 32.765625 -81.359375 L 32.765625 -14.203125 Z M 59.109375 -14.203125 "/></g></g></g><g fill="#002a69" fill-opacity="1"><g transform="translate(273.523801, 405.398916)"><g><path d="M 84.5 -9.421875 L 84.359375 -9.421875 C 82.085938 -7.597656 79.242188 -5.84375 75.828125 -4.15625 C 72.421875 -2.476562 68.664062 -1.140625 64.5625 -0.140625 C 60.46875 0.859375 56.285156 1.359375 52.015625 1.359375 C 43.734375 1.359375 36.40625 -0.207031 30.03125 -3.34375 C 23.664062 -6.476562 18.707031 -10.800781 15.15625 -16.3125 C 11.601562 -21.820312 9.828125 -28.078125 9.828125 -35.078125 C 9.828125 -43.085938 11.691406 -49.9375 15.421875 -55.625 C 19.148438 -61.3125 24.128906 -65.679688 30.359375 -68.734375 C 36.597656 -71.785156 43.40625 -73.3125 50.78125 -73.3125 C 57.601562 -73.3125 63.789062 -71.832031 69.34375 -68.875 C 74.894531 -65.914062 79.332031 -61.84375 82.65625 -56.65625 C 85.976562 -51.46875 87.640625 -45.414062 87.640625 -38.5 L 87.5 -31.9375 L 24.03125 -31.9375 C 25.125 -25.664062 28.351562 -20.707031 33.71875 -17.0625 C 39.09375 -13.425781 45.828125 -11.609375 53.921875 -11.609375 C 59.835938 -11.609375 64.679688 -12.539062 68.453125 -14.40625 C 72.234375 -16.269531 75.351562 -18.066406 77.8125 -19.796875 Z M 50.78125 -60.34375 C 44.320312 -60.34375 38.679688 -59.046875 33.859375 -56.453125 C 29.035156 -53.859375 25.894531 -49.421875 24.4375 -43.140625 L 73.3125 -43.140625 L 73.3125 -44.640625 C 72.945312 -47.734375 71.671875 -50.460938 69.484375 -52.828125 C 67.296875 -55.191406 64.539062 -57.035156 61.21875 -58.359375 C 57.90625 -59.679688 54.425781 -60.34375 50.78125 -60.34375 Z M 50.78125 -60.34375 "/></g></g></g><g fill="#002a69" fill-opacity="1"><g transform="translate(372.352945, 405.398916)"><g><path d="M 41.359375 0 L 27.296875 0 L 27.296875 -58.015625 L 9.140625 -58.015625 L 9.140625 -71.671875 L 27.296875 -71.671875 L 27.296875 -91.609375 L 41.359375 -91.609375 L 41.359375 -71.671875 L 62.390625 -71.671875 L 62.390625 -58.015625 L 41.359375 -58.015625 Z M 41.359375 0 "/></g></g></g><g fill="#002a69" fill-opacity="1"><g transform="translate(444.700258, 405.398916)"><g><path d="M 64.578125 -55.703125 C 63.210938 -56.429688 61.550781 -57.046875 59.59375 -57.546875 C 57.632812 -58.046875 55.695312 -58.296875 53.78125 -58.296875 C 49.875 -58.296875 46.28125 -57.359375 43 -55.484375 C 39.726562 -53.617188 37.085938 -51.160156 35.078125 -48.109375 C 33.078125 -45.066406 32.078125 -41.679688 32.078125 -37.953125 L 32.078125 0 L 17.890625 0 L 17.890625 -71.671875 L 32.078125 -71.671875 L 32.078125 -57.34375 C 34.628906 -61.882812 38.15625 -65.65625 42.65625 -68.65625 C 47.164062 -71.664062 51.832031 -73.171875 56.65625 -73.171875 C 58.925781 -73.171875 61.128906 -72.941406 63.265625 -72.484375 C 65.410156 -72.035156 67.070312 -71.445312 68.25 -70.71875 Z M 64.578125 -55.703125 "/></g></g></g><g fill="#002a69" fill-opacity="1"><g transform="translate(520.323658, 405.398916)"><g><path d="M 88.734375 -71.671875 L 88.734375 0 L 74.671875 0 L 74.671875 -11.734375 C 73.035156 -9.554688 70.804688 -7.460938 67.984375 -5.453125 C 65.160156 -3.453125 61.90625 -1.816406 58.21875 -0.546875 C 54.53125 0.722656 50.550781 1.359375 46.28125 1.359375 C 39.175781 1.359375 32.867188 -0.226562 27.359375 -3.40625 C 21.859375 -6.59375 17.535156 -11.007812 14.390625 -16.65625 C 11.253906 -22.300781 9.6875 -28.765625 9.6875 -36.046875 C 9.6875 -43.328125 11.320312 -49.738281 14.59375 -55.28125 C 17.875 -60.832031 22.40625 -65.203125 28.1875 -68.390625 C 33.96875 -71.578125 40.585938 -73.171875 48.046875 -73.171875 C 53.960938 -73.171875 59.21875 -72.03125 63.8125 -69.75 C 68.414062 -67.476562 72.035156 -64.84375 74.671875 -61.84375 L 74.671875 -71.671875 Z M 49.5625 -11.609375 C 54.5625 -11.609375 58.992188 -12.675781 62.859375 -14.8125 C 66.734375 -16.945312 69.757812 -19.832031 71.9375 -23.46875 C 74.125 -27.113281 75.21875 -31.304688 75.21875 -36.046875 C 75.21875 -40.585938 74.125 -44.675781 71.9375 -48.3125 C 69.757812 -51.957031 66.734375 -54.847656 62.859375 -56.984375 C 58.992188 -59.128906 54.5625 -60.203125 49.5625 -60.203125 C 44.550781 -60.203125 40.109375 -59.128906 36.234375 -56.984375 C 32.367188 -54.847656 29.367188 -51.957031 27.234375 -48.3125 C 25.097656 -44.675781 24.03125 -40.585938 24.03125 -36.046875 C 24.03125 -31.304688 25.097656 -27.113281 27.234375 -23.46875 C 29.367188 -19.832031 32.367188 -16.945312 36.234375 -14.8125 C 40.109375 -12.675781 44.550781 -11.609375 49.5625 -11.609375 Z M 49.5625 -11.609375 "/></g></g></g><g fill="#002a69" fill-opacity="1"><g transform="translate(625.841538, 405.398916)"><g><path d="M 64.578125 -52.5625 C 61.484375 -55.101562 57.84375 -57.238281 53.65625 -58.96875 C 49.46875 -60.695312 45.550781 -61.5625 41.90625 -61.5625 C 39.539062 -61.5625 37.109375 -61.332031 34.609375 -60.875 C 32.109375 -60.425781 29.992188 -59.585938 28.265625 -58.359375 C 26.535156 -57.128906 25.671875 -55.332031 25.671875 -52.96875 C 25.671875 -50.78125 26.535156 -49.023438 28.265625 -47.703125 C 29.992188 -46.390625 32.289062 -45.320312 35.15625 -44.5 C 38.019531 -43.6875 41.179688 -42.914062 44.640625 -42.1875 C 48.097656 -41.457031 51.488281 -40.613281 54.8125 -39.65625 C 58.132812 -38.695312 61.132812 -37.421875 63.8125 -35.828125 C 66.5 -34.242188 68.660156 -32.242188 70.296875 -29.828125 C 71.941406 -27.421875 72.765625 -24.394531 72.765625 -20.75 C 72.765625 -16.019531 71.375 -12.015625 68.59375 -8.734375 C 65.820312 -5.460938 62.179688 -2.960938 57.671875 -1.234375 C 53.171875 0.492188 48.28125 1.359375 43 1.359375 C 36.539062 1.359375 30.394531 0.382812 24.5625 -1.5625 C 18.738281 -3.519531 13.828125 -6.867188 9.828125 -11.609375 L 19.390625 -20.0625 C 22.296875 -17.0625 25.679688 -14.671875 29.546875 -12.890625 C 33.421875 -11.117188 37.953125 -10.234375 43.140625 -10.234375 C 45.410156 -10.234375 47.773438 -10.503906 50.234375 -11.046875 C 52.691406 -11.597656 54.785156 -12.53125 56.515625 -13.84375 C 58.242188 -15.164062 59.109375 -17.015625 59.109375 -19.390625 C 59.109375 -21.484375 58.242188 -23.164062 56.515625 -24.4375 C 54.785156 -25.707031 52.460938 -26.726562 49.546875 -27.5 C 46.640625 -28.28125 43.503906 -28.988281 40.140625 -29.625 C 35.222656 -30.71875 30.578125 -32.015625 26.203125 -33.515625 C 21.835938 -35.015625 18.3125 -37.242188 15.625 -40.203125 C 12.945312 -43.160156 11.609375 -47.28125 11.609375 -52.5625 C 11.609375 -56.75 12.945312 -60.390625 15.625 -63.484375 C 18.3125 -66.578125 21.929688 -68.960938 26.484375 -70.640625 C 31.035156 -72.328125 36.039062 -73.171875 41.5 -73.171875 C 44.957031 -73.171875 48.597656 -72.785156 52.421875 -72.015625 C 56.242188 -71.242188 59.90625 -70.015625 63.40625 -68.328125 C 66.914062 -66.640625 69.898438 -64.429688 72.359375 -61.703125 Z M 64.578125 -52.5625 "/></g></g></g><g fill="#002a69" fill-opacity="1"><g transform="translate(708.563189, 405.398916)"><g><path d="M 58.703125 -73.171875 C 65.429688 -73.171875 70.84375 -71.804688 74.9375 -69.078125 C 79.039062 -66.347656 82 -62.726562 83.8125 -58.21875 C 85.632812 -53.71875 86.546875 -48.691406 86.546875 -43.140625 L 86.546875 0 L 72.484375 0 L 72.484375 -41.640625 C 72.484375 -47.191406 70.9375 -51.765625 67.84375 -55.359375 C 64.75 -58.953125 60.15625 -60.613281 54.0625 -60.34375 C 49.78125 -60.34375 45.976562 -59.410156 42.65625 -57.546875 C 39.332031 -55.679688 36.710938 -53.269531 34.796875 -50.3125 C 32.890625 -47.351562 31.9375 -44.328125 31.9375 -41.234375 L 31.9375 0 L 17.890625 0 L 17.890625 -101.015625 L 31.9375 -101.015625 L 31.9375 -60.0625 C 34.675781 -63.613281 38.410156 -66.6875 43.140625 -69.28125 C 47.867188 -71.875 53.054688 -73.171875 58.703125 -73.171875 Z M 58.703125 -73.171875 "/></g></g></g></svg>