<svg xmlns="http://www.w3.org/2000/svg" xmlns:xlink="http://www.w3.org/1999/xlink" width="1134" zoomAndPan="magnify" viewBox="0 0 850.07996 708.749996" height="945" preserveAspectRatio="xMidYMid meet" version="1.0"><defs><clipPath id="82e2584cc0"><path d="M 141.589844 71.046875 L 707.601562 71.046875 L 707.601562 637.253906 L 141.589844 637.253906 Z M 141.589844 71.046875 " clip-rule="nonzero"/></clipPath><clipPath id="5b107d6e77"><path d="M 204.617188 134.082031 L 644.453125 134.082031 L 644.453125 574.195312 L 204.617188 574.195312 Z M 204.617188 134.082031 " clip-rule="nonzero"/></clipPath><clipPath id="84008d5939"><path d="M 273.964844 203.433594 L 575.507812 203.433594 L 575.507812 504.976562 L 273.964844 504.976562 Z M 273.964844 203.433594 " clip-rule="nonzero"/></clipPath><clipPath id="2a3fc822f7"><path d="M 424.738281 203.433594 L 575.507812 354.207031 L 424.738281 504.976562 L 273.964844 354.207031 Z M 424.738281 203.433594 " clip-rule="nonzero"/></clipPath></defs><g clip-path="url(#82e2584cc0)"><path fill="#01a75c" d="M 432.570312 78.921875 L 707.796875 354.152344 L 424.695312 637.253906 L 141.589844 354.152344 L 424.695312 71.046875 Z M 550.496094 228.351562 L 424.695312 102.550781 L 173.09375 354.152344 L 424.695312 605.75 L 676.296875 354.152344 L 550.496094 228.351562 " fill-opacity="1" fill-rule="nonzero"/></g><g clip-path="url(#5b107d6e77)"><path fill="#00bf63" d="M 430.832031 140.203125 L 644.800781 354.171875 L 424.707031 574.261719 L 204.617188 354.171875 L 424.707031 134.082031 Z M 522.507812 256.371094 L 424.707031 158.570312 L 229.109375 354.171875 L 424.707031 549.773438 L 620.308594 354.171875 L 522.507812 256.371094 " fill-opacity="1" fill-rule="nonzero"/></g><g clip-path="url(#84008d5939)"><g clip-path="url(#2a3fc822f7)"><path fill="#01a75c" d="M 273.964844 203.433594 L 575.507812 203.433594 L 575.507812 504.976562 L 273.964844 504.976562 Z M 273.964844 203.433594 " fill-opacity="1" fill-rule="nonzero"/></g></g></svg>