<svg width="360" height="242" viewBox="0 0 360 242" fill="none" xmlns="http://www.w3.org/2000/svg">
<path d="M115.74 241.018C113.179 240.759 110.63 240.412 108.097 239.953C106.053 240.009 104 239.853 102.015 239.31C99.0489 238.51 95.9412 238.294 93.0286 237.32C91.1836 237.134 89.2917 237.238 87.5155 236.582C84.0698 235.457 80.316 235.202 77.0952 233.456C75.9133 232.266 74.7001 231.442 72.9955 231.529C71.14 230.613 69.0349 230.373 67.2314 229.317C65.6555 228.703 64.5451 227.337 62.9223 226.827C61.1306 225.739 59.1984 224.926 57.4365 223.765C55.7332 222.301 53.3602 221.924 51.7323 220.373C49.2007 218.682 46.8108 216.78 44.7278 214.554C42.9165 213.585 42.7071 211.325 40.9622 210.429C39.2393 210.15 38.2056 208.564 37.1485 207.41C35.3581 207.439 34.8861 205.31 33.5754 204.366C31.8786 202.645 30.5068 200.583 28.6045 199.079C27.0767 198.234 26.394 196.427 25.1835 195.212C23.5738 193.239 21.4712 191.621 20.3335 189.304C19.0359 188.235 18.7056 186.52 17.6888 185.295C16.9385 183.762 15.5928 182.34 15.2664 180.712C14.3497 179.23 13.8803 177.503 12.9415 175.974C12.7257 174.122 10.8026 173.359 10.3891 171.532C9.45551 169.563 8.35809 167.661 7.86399 165.512C7.14755 163.715 6.98371 161.684 6.12684 159.999C5.36099 158.662 5.68085 156.621 4.67835 155.678C5.9357 154.924 3.08292 153.185 4.05682 151.905C4.4261 151.736 6.53642 151.685 5.14904 151.646C3.28186 151.843 2.88658 149.591 3.12193 148.188C3.21295 146.723 1.24435 146.308 1.72935 144.565C1.28466 143.1 0.856874 141.575 1.24305 140.153C-0.335468 139.562 1.53041 137.326 0.620226 136.333C0.351071 135.309 1.59932 134.485 0.860774 133.316C0.505802 132 0.05071 130.491 0.384878 128.879C0.241849 127.469 1.52651 126.087 0 125.373C0.622826 123.721 -0.484998 121.84 0.452492 120.283C0.984299 118.579 -0.00390071 116.738 0.304262 114.909C0.373175 110.89 -0.24965 106.75 0.943991 102.846C0.200241 101.636 1.06102 100.912 2.23125 100.869C1.90098 100.523 0.0455091 100.449 0.781458 99.1035C1.28206 98.3077 2.55892 98.2271 1.37828 97.2402C0.235348 95.9399 2.08822 95.1416 1.35878 93.619C1.65654 92.0027 1.57462 90.3241 2.26246 88.7235C2.02451 87.1306 4.74206 88.0135 4.51841 87.0019C3.16224 87.6117 2.4445 86.8628 3.16614 85.543C2.9568 83.7578 4.54832 82.5719 4.79797 80.8218C5.40259 79.0521 6.30108 77.4606 7.11244 75.804C7.79898 74.4024 8.01482 72.855 8.85349 71.5418C9.57644 70.1128 10.3787 68.7215 10.9794 67.2132C11.5749 65.2732 13.4304 64.0276 13.8192 61.9861C14.351 60.3933 15.5603 59.11 16.2533 57.6043C16.7773 55.9282 18.3194 54.5681 19.292 53.0962C20.4245 51.6504 20.9498 49.8014 22.2462 48.4738C22.2722 47.5883 24.5724 48.3568 23.276 47.3777C22.8105 45.6236 25.6126 45.4468 25.8817 44.3858C25.8284 42.7969 28.0077 41.7788 28.8931 40.498C30.2116 39.1743 31.0451 37.4762 32.5794 36.3437C33.5767 35.3308 34.7547 34.756 35.0642 33.2841C35.7156 32.4858 38.0938 33.2646 38.0223 32.5092C35.9757 32.1243 39.2653 31.0334 39.398 29.9802C40.8764 28.6565 43.001 28.217 44.3039 26.5761C45.9058 25.6308 47.1176 24.1953 48.5466 23.0186C49.8534 21.9029 51.5567 21.1969 52.6724 19.9174C53.3186 18.4468 56.0075 18.911 56.2468 17.0269C57.3546 15.9698 59.1867 16.5654 59.7315 15.1741C61.5363 14.8828 62.5089 12.9857 64.2577 12.7023C66.0027 11.6257 68.1234 11.2668 69.7058 9.84169C71.2752 8.48292 73.6287 8.76117 75.4335 7.74307C76.2344 7.46611 77.051 7.15665 76.094 6.59494C76.7961 5.61714 78.1172 7.77297 78.9065 6.48311C79.7191 6.84199 80.9895 5.65615 81.204 5.97991C81.9543 6.31278 82.3288 4.21025 83.5666 5.02942C85.1256 4.90199 86.682 4.4352 88.2411 4.27266C88.1396 3.15054 89.9717 3.15574 90.6895 2.9503C91.4748 3.58353 93.6801 3.74346 92.2745 2.58232C93.576 1.52651 95.4913 2.09082 97.0672 1.93219C100.332 1.60973 103.546 0.882879 106.759 0.243149C109.803 -0.109222 112.897 0.0728147 115.96 0C122.684 0.0494102 129.414 -0.0585119 136.132 0.226246C137.615 0.854273 139.066 0.69174 140.698 0.745051C142.839 0.823067 144.942 1.29636 147.083 1.31327C148.703 1.80867 150.373 1.79176 151.92 2.50301C153.233 2.9854 155.487 3.13103 155.029 4.60163C156.457 3.13233 158.636 4.61333 160.267 5.10613C161.969 5.45981 163.528 6.23476 165.118 6.9083C167.252 7.38029 168.999 8.74167 170.922 9.69606C172.038 11.0691 173.98 11.1394 175.125 12.463C175.773 13.0091 176.002 14.221 176.573 12.896C178.074 13.6866 179.596 14.8113 181.229 15.5498C183.09 16.6187 184.99 17.6849 186.482 19.2426C188.114 20.6703 190.156 21.466 191.751 22.9392C193.02 24.1823 194.79 24.8051 195.856 26.2276C197.455 27.1326 198.819 28.3743 200.259 29.5017C202.088 30.3 202.663 32.53 204.082 33.7457C205.966 34.3322 206.782 35.9965 208.341 36.9496C210.432 38.2381 211.627 40.5032 213.321 42.2247C213.899 43.1258 216.517 45.4429 214.283 45.7875C215.157 46.2894 216.182 45.2362 216.915 46.5832C218.893 48.2983 219.514 50.9716 221.257 52.8635C221.974 53.8413 221.469 55.7254 223.073 55.7644C223.237 57.6186 225.081 58.5001 225.572 60.2464C226.295 61.8977 226.611 63.6492 227.391 65.2498C227.919 66.8998 228.828 68.5122 229.463 70.1739C229.892 71.7329 230.252 73.3153 230.994 74.7677C231.814 76.4711 232.027 78.3396 232.328 80.169C233.176 81.6851 233.232 83.4509 233.838 85.0658C234.44 87.3296 235.336 89.5439 235.479 91.9C236.281 94.5304 236.73 97.2467 237.041 99.9772C237.537 101.4 237.165 103.181 238.19 104.203C238.191 105.03 236.848 105.614 238.048 106.308C238.974 108.928 238.853 111.782 238.644 114.51C239.036 116.101 239.156 117.779 238.411 119.293C238.535 120.381 239.108 121.382 238.757 122.426C239.96 123.533 237.641 125.423 238.687 126.422C238.544 128.062 238.208 129.683 238.055 131.32C237.825 133.109 239.373 134.882 238.604 136.554C237.618 137.928 239.189 140.127 237.539 141.021C237.267 142.394 236.942 143.764 236.992 145.213C236.47 147.057 235.963 148.937 235.615 150.794C235.357 151.694 234.562 152.153 235.511 152.815C235.089 154.296 235.222 156.032 233.596 156.769C233.453 158.342 232.919 159.73 232.574 161.242C232.348 162.758 232.522 164.267 231.452 165.552C231.383 167.275 230.336 168.606 229.894 170.113C229.516 172.116 228.282 173.858 227.791 175.823C226.667 177.542 224.953 178.872 224.263 180.867C223.037 181.945 222.504 183.494 221.422 184.728C220.214 185.799 219.802 187.549 218.63 188.597C218.028 190.044 216.448 190.591 215.779 191.877C214.805 193.445 213.334 194.467 211.94 195.645C211.382 196.95 210.791 199.434 208.708 198.585C207.941 199.51 207.995 201.513 206.655 202.416C205.274 203.784 203.961 205.367 202.212 206.256C201.139 207.079 200.398 208.834 199.112 209.782C197.354 211.457 195.601 213.195 193.509 214.45C191.829 215.165 190.88 217.078 189.179 218.009C187.936 219.23 186.014 219.345 184.957 220.813C182.902 221.989 181.123 223.649 178.964 224.684C176.132 226.19 173.143 227.406 170.418 229.101C168.677 229.857 166.591 229.584 165.019 230.775C163.197 231.746 160.986 231.373 159.23 232.516C157.614 233.298 155.961 233.884 154.293 234.504C151.963 235.844 149.177 236.073 146.828 237.368C144.949 238.125 142.839 237.725 140.991 238.576C139.23 238.873 137.531 239.464 135.715 239.492C131.653 239.811 127.557 239.941 123.543 240.653C121.376 240.83 119.195 240.936 117.038 241.14C116.604 241.118 116.171 241.075 115.74 241.018ZM129.688 235.846C131.58 235.493 133.441 235.007 135.378 234.958C137.264 234.759 139.068 234.116 140.973 234.011C142.768 233.601 144.589 233.439 146.414 233.213C148.628 232.849 150.834 232.286 152.845 231.296C154.711 231.026 156.415 230.225 158.204 229.725C159.531 229.014 160.295 227.993 161.781 227.679C163.499 227.497 164.988 226.488 166.64 226.055C168.283 225.172 170.156 224.796 171.701 223.73C174.173 222.943 175.866 220.729 178.368 220.018C179.737 219.115 181.25 218.561 182.621 217.658C184.992 217.076 186.38 214.835 188.481 213.793C190.083 212.203 192.075 211.072 193.623 209.413C194.868 208.186 196.498 207.484 197.679 206.174C200.194 203.91 202.736 201.664 204.933 199.083C206.637 197.596 208.185 195.95 209.623 194.205C211.035 193.057 212.206 191.741 213.025 190.095C214.082 188.937 214.928 187.631 216.036 186.503C216.788 185.168 217.698 183.938 218.39 182.595C219.549 180.506 221.303 178.816 222.505 176.771C223.34 175.22 224.416 173.792 225.151 172.195C225.368 170.64 226.152 169.112 226.843 167.631C227.66 166.106 228.017 164.384 228.962 162.958C229.676 161.064 230.14 159.061 231.011 157.293C231.41 155.638 232.374 154.164 232.647 152.456C233.702 150.992 233.969 149.226 234.042 147.456C234.168 145.176 234.54 142.922 234.872 140.673C234.917 139.096 236.302 137.844 235.895 136.356C235.837 134.463 236.097 132.503 236.325 130.745C236.877 129.696 235.371 128.632 236.06 127.365C236.15 125.815 236.038 123.793 237.28 122.94C238.092 122.903 238.7 122.88 237.539 122.779C235.197 122.457 237.121 119.589 236.524 118.083C236.042 116.45 235.926 114.75 236.013 113.042C236.299 111.17 235.332 109.508 235.342 107.664C235.595 105.862 234.332 104.487 234.574 102.696C234.473 100.282 233.833 97.9488 233.21 95.6318C232.756 93.8972 233.18 91.8753 231.951 90.4138C231.356 88.5674 231.158 86.6092 230.57 84.7525C230.339 82.9217 230.176 80.9921 229.187 79.3811C228.911 77.8416 227.638 76.3827 227.986 74.8184C227.783 72.9097 227.026 71.1036 226.218 69.3521C225.593 67.7203 224.901 66.2146 224.294 64.5555C223.492 63.1889 222.627 61.873 221.922 60.4401C220.805 59.1282 220.136 57.4872 218.843 56.2559C217.617 54.8035 216.422 53.3082 215.351 51.7453C214.776 49.6427 212.848 48.3347 211.709 46.5533C208.515 42.1857 204.841 38.1952 201.16 34.2385C200.038 32.8433 198.119 32.214 196.974 30.7265C195.076 28.9075 192.999 27.2977 190.912 25.7088C189.719 24.3513 188.148 23.4971 186.784 22.3359C184.602 20.7041 182.41 19.0307 179.98 17.8045C178.854 16.6811 177.884 15.7787 176.193 15.7592C174.774 15.1533 173.709 14.3042 172.358 13.5969C170.806 12.9142 169.379 11.8428 167.755 11.4839C166.055 10.6817 164.357 9.84039 162.727 8.9042C161.078 8.44131 159.39 7.51812 157.671 6.98631C156.117 6.03452 154.313 5.78227 152.773 4.85908C150.723 4.67575 148.797 3.73436 146.724 3.75906C145.03 3.59913 145.388 2.62783 146.659 2.28846C145.12 1.30546 144.827 3.91119 143.12 3.19475C139.219 2.79297 135.442 1.63573 131.528 1.33537C129.83 0.637129 128.09 0.979098 126.323 1.16764C121.562 1.30936 116.726 0.981699 112.046 2.08302C110.071 2.41069 108.086 1.82167 106.108 2.24035C105.498 2.60053 104.917 0.654032 104.728 1.69164C105.935 2.62133 102.491 3.05432 101.723 3.31047C97.1141 4.4469 92.3772 4.99691 87.8302 6.39209C86.2855 6.69766 84.8656 6.82898 83.5783 7.77297C82.1545 8.24367 80.9882 6.72366 79.7685 8.02522C79.3876 8.56483 80.9167 7.79768 81.2469 7.73006C81.5642 9.66356 78.2225 9.56084 77.1225 10.7454C75.375 11.5411 73.7015 12.5748 71.7966 13.0312C70.027 13.8231 68.4368 14.9582 66.6021 15.6344C65.1822 16.4782 63.6518 17.2012 62.1019 17.7824C61.0188 18.651 60.067 19.5976 58.6783 20.0722C57.3468 20.9446 55.8905 21.6182 54.628 22.6168C53.2601 23.8767 51.5177 24.3292 50.211 25.5398C48.8964 26.866 47.3686 27.8854 45.8993 29.1129C44.5184 29.9399 43.8189 31.5249 42.174 31.9787C39.9298 34.5779 37.2889 36.8079 34.8809 39.2575C33.2022 40.7099 31.7069 42.3535 30.5861 44.2779C29.4185 45.478 28.0441 46.513 27.0312 47.8926C25.9012 49.3294 25.0093 50.9313 23.7727 52.2914C22.8599 53.9245 21.6845 55.3769 20.7912 57.0178C19.9291 58.6276 18.651 60.0553 18.1309 61.8145C16.6057 62.5388 16.8813 64.6452 15.5863 65.5138C15.4315 66.4057 14.4992 66.6229 14.6215 67.7359C14.1209 69.3716 12.6399 70.2597 12.3785 71.9748C11.3682 73.6079 11.3266 75.6324 9.97692 77.0744C9.19286 78.229 9.15775 79.8115 8.46991 80.8036C9.20976 82.1064 6.87579 82.6304 7.15015 83.603C6.9057 84.9644 6.17885 86.6066 6.04622 88.1708C5.56253 89.2241 6.06053 91.2642 4.9163 91.6204C5.50271 92.7959 3.52761 92.8076 4.73816 93.9583C4.91499 95.3743 4.31817 97.2688 3.22595 97.9358C4.76937 98.3311 3.22595 100.306 2.00891 99.7744C2.62783 100.062 4.19725 101.569 3.30007 102.822C2.90219 104.817 3.73566 106.783 3.23375 108.732C2.9568 111.897 3.15704 115.078 2.75006 118.237C2.22345 120.085 3.39239 121.898 2.60443 123.641C3.02181 124.895 2.83327 126.729 3.10113 127.544C1.34967 127.859 3.79547 128.445 3.38198 129.615C3.75256 132.157 4.36888 134.84 3.59523 137.359C4.85128 138.369 2.39769 137.556 3.31827 138.503C4.9631 140.207 5.02552 142.71 5.07623 144.923C5.81088 146.49 6.74837 147.992 6.76787 149.786C7.17355 151.379 8.08764 152.889 7.63255 154.44C8.69746 155.088 7.80678 155.714 8.99652 156.271C9.47762 158.319 9.28128 160.668 10.5724 162.451C11.4592 163.788 12.4539 165.211 12.9844 166.8C13.6268 168.769 15.0557 170.384 15.5772 172.412C16.4639 173.787 17.4586 175.139 18.1712 176.646C19.4883 179.045 20.5728 181.618 22.1838 183.826C23.0719 185.358 24.1316 186.815 25.1068 188.313C25.9259 189.798 27 190.762 27.8295 192.083C28.8645 193.509 29.9347 194.929 31.1595 196.245C32.2686 197.65 33.868 198.574 34.8171 200.134C35.7793 201.491 37.1043 202.584 37.9339 204.027C40.1872 203.876 40.4421 206.59 42.0791 207.67C43.4366 208.801 45.1087 209.621 46.0241 211.251C46.253 212.428 47.5779 212.557 48.3568 212.549C47.3751 213.342 49.3775 213.692 49.3957 214.549C50.9001 215.424 52.4799 216.193 53.775 217.382C55.4744 218.139 56.9164 219.357 58.7095 219.953C60.5338 220.724 62.0603 222.054 63.9352 222.727C66.42 223.979 68.8294 225.498 71.4794 226.341C72.8472 227.451 74.5519 228.021 76.1577 228.689C77.9183 229.442 79.7178 230.282 81.5434 230.753C83.5354 230.966 85.2075 232.422 87.2737 232.338C89.2124 232.873 91.0444 233.794 93.0572 234.088C94.8802 234.421 96.7526 234.359 98.5417 234.9C103.068 235.57 107.653 235.729 112.195 236.249C117.934 236.377 123.69 236.348 129.414 235.885L129.688 235.844V235.846ZM116.364 231.234C114.896 231.045 113.219 231.144 111.681 230.875C109.929 230.405 108.082 230.132 106.393 230.97C104.676 231.122 103.056 230.344 101.344 230.305C98.9383 230.059 96.4964 229.844 94.1989 229.08C92.2524 228.815 90.4528 227.971 88.5349 227.525C86.751 226.863 84.837 226.953 83.1635 226.026C81.7645 225.079 80.1209 224.516 78.6165 223.718C76.9353 223.272 75.4959 222.186 73.7964 221.835C72.3661 220.644 70.6199 219.856 68.8164 219.371C67.1924 218.832 65.5944 218.357 64.2681 217.221C62.6844 216.339 61.037 215.573 59.4584 214.686C57.6524 214.165 56.6551 212.189 54.823 211.376C52.1588 210.116 50.2643 207.785 47.8679 206.137C46.725 204.89 45.2206 204.083 43.9736 202.967C42.7904 201.835 41.7944 200.589 40.8153 199.303C39.7269 197.778 38.5879 196.379 37.0588 195.303C35.9094 193.677 34.3764 192.432 33.1164 190.92C32.0606 189.43 31.0412 187.978 29.9828 186.499C29.5147 184.637 27.5708 184.142 26.5982 182.705C24.926 180.469 23.4203 178.091 22.1331 175.607C21.2281 172.956 18.9682 170.963 18.3337 168.201C17.4235 166.842 17.0621 165.295 16.0648 163.994C15.347 162.606 14.6865 161.174 14.2457 159.679C13.2328 158.197 12.7569 156.414 12.2615 154.691C11.9377 153.791 11.5541 151.277 12.5917 153.295C13.6281 154.747 14.5786 156.166 14.862 157.982C15.6708 160.211 16.8683 162.262 17.9579 164.352C18.573 166.259 19.6964 167.972 20.6404 169.731C21.6598 171.216 22.4594 172.821 23.2838 174.41C25.5502 177.81 27.7567 181.255 30.1297 184.581C31.0893 186.205 32.4364 187.53 33.6313 189.014C34.258 190.568 35.8001 191.28 36.6739 192.725C38.1536 193.815 39.6203 195.052 40.7021 196.562C42.8372 199.138 45.3675 201.381 47.8211 203.655C49.9327 205.282 51.8376 207.149 53.9102 208.821C55.7085 210.259 57.6446 211.511 59.396 213.007C62.9665 215.33 66.736 217.398 70.7525 218.841C74.5935 220.73 78.7868 221.733 82.7396 223.335C86.7146 224.864 90.8793 225.831 94.9569 227.047C99.3206 228.088 103.808 228.521 108.268 228.928C114.774 229.442 121.316 229.303 127.825 228.939C130.683 228.321 133.635 228.24 136.524 227.766C139.51 227.32 142.617 227.268 145.437 226.091C148.576 225.832 151.574 224.797 154.653 224.186C157.926 223.176 161.039 221.718 164.303 220.669C168.928 219.015 173.161 216.465 177.607 214.417C179.496 214.675 176.662 216.318 175.896 216.581C173.984 217.362 172.701 219.217 170.654 219.711C169.247 220.911 167.495 221.337 165.938 222.21C163.893 223.807 161.168 224.011 158.835 225.017C157.242 225.974 155.363 225.808 153.676 226.518C151.846 226.71 150.059 227.131 148.348 227.792C146.581 228.123 145.012 229.131 143.172 229.009C137.264 229.859 131.347 230.695 125.387 231.084C122.459 231.247 119.511 231.581 116.58 231.33L116.363 231.235L116.364 231.234ZM110.923 227.131C109.357 226.662 107.709 227.204 106.161 226.402C104.072 226.235 102.132 225.264 100.033 225.021C98.2115 224.546 96.3287 224.516 94.494 224.247C92.5046 223.589 90.3176 224.021 88.3919 223.103C85.4559 222.333 82.3509 221.951 79.6814 220.409C77.549 219.518 75.4049 218.641 73.4506 217.394C70.945 216.277 69.0388 214.051 66.3576 213.324C65.2732 212.148 63.7506 211.44 62.6129 210.254C60.9238 208.756 58.6029 208.092 57.2155 206.244C55.4471 205.088 54.0519 203.409 52.3057 202.19C50.3865 200.514 48.8158 198.46 46.6886 197.015C45.1386 195.995 44.3182 194.296 42.9919 193.036C41.6851 191.867 40.866 190.303 39.6762 189.047C37.8325 187.389 36.3918 185.347 34.8223 183.452C33.4168 182.189 32.7445 180.345 31.4794 178.957C30.7798 177.555 29.7838 176.524 28.8125 175.255C28.0961 173.68 26.9922 172.376 26.2224 170.842C24.9299 168.577 23.4828 166.343 22.6714 163.86C21.8223 162.629 21.3009 161.292 20.5962 159.964C20.0215 158.38 19.4467 156.835 18.7888 155.259C17.8162 152.505 17.023 149.647 15.7098 147.047C15.5134 145.464 14.5187 144.116 14.3575 142.511C14.0311 140.618 13.5578 138.748 13.1132 136.916C13.1847 135.703 12.3915 134.788 13.0091 133.7C12.3772 131.275 12.2745 128.733 12.1341 126.237C12.5293 123.204 12.3564 120.103 13.0442 117.11C13.3056 115.275 12.7985 113.305 13.5539 111.568C14.6956 111.173 13.853 113.893 14.035 114.648C13.6398 120.03 13.9466 125.431 13.9219 130.817C12.7712 131.654 14.6904 132.758 14.4173 134.122C14.8997 136.792 14.7333 139.609 15.8775 142.125C15.7293 143.794 16.8241 145.249 16.8787 146.83C17.1791 148.762 18.8616 150.212 19.1581 152.178C19.699 153.629 20.6352 155.007 20.8874 156.487C22.4933 158.004 22.9249 160.312 23.9639 162.203C24.731 163.885 25.6308 165.527 26.1535 167.305C26.922 168.717 27.9062 169.761 28.8489 171.038C29.8059 171.704 28.9868 172.821 30.2389 172.849C31.2453 174.164 32.1711 175.598 33.2646 176.701C33.7795 178.468 35.3984 179.607 35.9952 181.31C37.2044 182.665 38.4787 183.991 39.2705 185.657C40.4863 186.93 41.5824 188.334 42.6811 189.612C44.0542 190.421 44.6536 192.072 45.8629 193.101C47.0357 193.891 47.5259 195.995 49.0927 195.613C49.2553 197.191 50.7779 198.359 51.9585 199.176C53.0572 200.278 54.5759 200.927 55.6227 202.13C57.1297 203.587 58.9656 204.648 60.4505 206.144C62.0291 207.656 63.8819 208.808 65.7556 209.904C67.3172 211.164 69.252 211.849 70.8539 213.064C72.5443 214.2 74.4661 214.926 76.1278 216.105C77.8741 217.15 79.9259 217.214 81.8438 217.57C83.5029 218 85.1503 219.448 86.682 219.431C87.8367 218.448 88.9276 220.822 90.4125 220.523C92.0989 221.012 93.6567 221.837 95.4341 221.971C98.0763 222.775 100.746 223.475 103.487 223.852C106.642 224.507 109.837 225.033 113.072 224.936H116.775C121.174 225.273 121.002 225.577 123.083 225.094C124.521 224.645 126.256 224.791 127.861 224.292C129.879 223.974 131.848 223.328 133.917 223.458C135.406 222.999 136.983 222.896 138.534 222.692C140.224 222.293 141.889 222.025 143.597 221.743C145.559 221.956 147.121 220.659 149.002 220.625C149.862 220.578 151.162 220.114 149.568 220.255C150.36 219.214 152.535 220.008 153.583 218.832C154.639 218.994 155.76 219.067 155.855 217.86C157.503 217.3 159.156 216.881 160.802 216.175C162.373 215.32 164.117 215.105 165.574 214.312C166.812 212.757 168.89 212.809 170.502 211.901C172.323 211.615 173.04 209.764 174.852 209.688C175.513 208.311 177.7 208.297 178.719 206.881C180.064 205.422 182.072 204.92 183.388 203.407C184.953 202.738 186.161 201.555 187.58 200.576C188.983 199.447 190.325 198.219 191.401 196.775C192.408 195.368 194.323 194.776 195.337 193.327C197.081 191.444 198.921 189.623 200.983 188.1C201.909 186.814 202.461 185.243 203.749 184.213C205.083 182.995 205.996 181.437 206.942 179.927C207.899 178.563 209.137 177.241 209.686 175.686C210.774 174.265 211.272 172.473 212.509 171.142C213.802 168.644 215.415 166.306 216.349 163.632C217.348 160.766 218.767 158.068 219.573 155.134C220.272 153.328 220.444 151.306 221.703 149.758C222.306 148.2 222.921 146.632 223.19 144.917C223.942 141.242 225.124 137.617 225.155 133.837C225.979 126.598 225.571 119.286 225.174 112.031C224.721 107.088 223.553 102.245 223.146 97.2961C222.996 95.7124 221.947 94.5018 222.575 92.8778C221.548 91.5099 221.909 89.5296 220.769 88.0096C219.689 86.0254 219.421 83.7044 218.279 81.7501C217.446 81.2261 216.469 81.5798 217.836 81.035C218.232 79.5592 216.624 78.0847 216.264 76.6063C216.04 74.8679 215.126 73.4233 214.478 71.8148C213.71 70.2168 212.619 68.741 212.276 66.974C211.249 65.086 210.058 63.2825 208.944 61.4413C207.401 59.0319 205.278 57.0712 203.762 54.6384C201.571 52.2407 199.745 49.5244 197.568 47.1059C194.92 43.9268 191.889 41.0961 188.59 38.6022C186.166 36.6414 183.903 34.4544 181.185 32.8915C180.721 31.4456 179.733 30.4938 178.244 29.9919C176.342 28.7085 174.344 27.563 172.449 26.277C170.682 24.6725 168.248 24.1303 166.28 22.8313C164.622 22.2306 163.138 21.1969 161.419 20.695C159.826 19.9343 158.177 19.3531 156.462 18.9669C155.189 18.4507 153.46 17.9657 152.508 17.2428C155.622 17.6511 158.476 19.1061 161.537 19.7692C163.108 20.3517 164.69 20.8614 166.118 21.743C167.688 22.2475 169.279 22.8118 170.487 24.0263C172.111 25.1159 173.973 25.8206 175.467 27.1196C177.007 27.8347 177.87 29.6616 179.638 29.7097C181.008 31.0217 182.723 31.967 184.229 33.1749C186.164 34.6572 187.909 36.3684 189.749 37.9664C194.278 42.0674 198.366 46.6209 202.464 51.1407C203.251 52.662 204.418 53.8153 205.612 55.0076C206.763 56.3235 207.791 57.7655 208.709 59.2309C209.911 60.1996 210.323 62.0135 211.242 63.2916C211.926 64.9117 212.779 66.2549 213.672 67.7632C214.576 69.438 215.171 71.2453 216.17 72.8759C216.656 74.6559 217.859 76.0979 218.267 77.8715C219.471 79.2341 219.211 81.2079 220.2 82.6239C221.194 85.1061 222.456 87.5454 223.094 90.1733C223.543 91.2759 223.57 92.3889 224.233 93.3797C224.263 95.3093 224.709 97.2363 224.998 99.1477C225.264 100.698 226.012 102.459 225.68 103.817C226.23 106.394 226.131 109.066 226.544 111.668C227.913 113.092 226.51 115.179 227.014 116.93C227.027 118.602 227.563 120.35 227.136 121.979C226.225 122.493 228.002 122.972 227.265 123.919C226.992 126.25 226.988 128.618 226.521 130.921C227.19 132.488 226.105 134.177 226.163 135.868C225.748 137.5 225.538 139.155 225.33 140.8C224.451 142.419 224.44 144.221 224.171 146.003C223.873 147.922 222.648 149.52 222.309 151.416C221.688 152.811 221.181 154.21 220.805 155.683C219.985 157.394 219.553 159.225 219.059 161.04C218.14 162.364 217.529 163.894 217.037 165.443C216.152 168.15 214.121 170.314 213.296 173.042C212.07 174.324 211.345 175.87 210.42 177.329C209.852 178.698 209.038 180.099 207.952 181.099C206.704 183.596 204.983 185.856 203.387 188.149C201.881 189.127 201.811 191.472 199.935 191.815C198.585 192.072 199.421 194.376 197.766 194.718C196.393 195.887 195.574 197.588 194.063 198.645C192.841 199.899 191.172 200.624 189.887 201.72C188.797 203.239 187.116 204.295 185.71 205.574C184.22 206.666 182.673 207.584 181.296 208.799C179.587 209.782 177.771 210.584 176.218 211.813C173.113 213.544 169.973 215.227 166.796 216.821C164.726 217.867 162.481 218.535 160.449 219.648C159.086 220.743 157.221 220.531 155.625 221.147C153.363 221.371 151.305 222.439 149.084 222.878C146.501 223.6 143.834 224.052 141.3 224.93C139.614 225.464 137.804 225.61 136.05 225.936C131.561 226.454 127.033 226.512 122.534 226.901C120.871 227.696 119.204 226.765 117.502 227.139C115.316 227.234 113.098 227.384 110.923 227.13V227.131ZM171.887 215.385C171.39 213.962 174.003 214.699 172.575 215.528C172.342 215.607 172.061 215.562 171.887 215.385ZM178.98 213.927C180.387 212.627 182.12 211.663 183.706 210.566C185.139 209.459 186.619 208.404 187.934 207.122C190.304 205.23 192.651 203.303 194.711 201.066C197.306 198.454 200.048 195.973 202.399 193.131C203.877 191.95 204.88 190.264 206.002 188.766C207.279 187.29 208.422 185.706 209.519 184.089C210.744 182.556 211.75 180.867 212.923 179.296C213.67 177.877 214.897 176.681 215.668 175.209C216.477 173.428 217.633 171.827 218.687 170.19C219.526 168.362 220.458 166.587 221.136 164.678C222.127 162.837 222.545 160.748 223.552 158.905C224.21 157.025 224.475 155.021 225.226 153.159C226.14 150.703 226.594 148.129 227.082 145.567C227.924 142.772 227.822 139.807 228.607 136.994C229.318 133.069 230.028 129.098 230.017 125.098C229.963 121.914 230.727 118.754 230.524 115.558C230.647 113.527 230.288 111.498 230.438 109.472C230.888 110.15 231.296 112.634 231.599 113.993C231.856 116.059 232.221 118.19 231.473 120.208C230.677 121.892 231.808 123.573 231.075 125.133C230.814 127.883 231.109 130.663 230.792 133.407C230.435 135.005 230.27 136.667 229.758 138.232C229.491 139.904 229.772 141.677 229.222 143.286C228.802 144.8 228.034 146.394 227.88 148.028C227.394 149.71 227.475 151.569 226.662 153.202C226.631 154.969 225.901 156.359 225.571 158.1C224.757 159.886 224.6 161.996 223.384 163.567C223.197 165.174 221.986 166.154 221.617 167.652C220.863 169.169 219.798 170.481 219.47 172.196C218.652 174.449 216.399 175.758 215.575 178.019C214.723 179.44 213.497 180.586 212.88 182.146C212.005 183.989 210.63 185.446 209.544 187.022C208.545 188.837 206.872 190.199 205.934 192.064C204.6 193.799 202.945 195.242 201.248 196.593C200.221 198.167 198.654 199.137 197.373 200.48C195.686 202.015 194.406 203.953 192.462 205.202C190.915 206.018 189.84 207.448 188.342 208.358C186.151 209.794 184.063 211.375 181.937 212.899C181.327 213.074 179.292 214.874 178.981 213.927H178.98ZM11.1498 151.49C12.3707 152.439 11.0431 149.681 11.1498 151.49ZM8.60254 143C8.26967 141.493 9.47112 143.08 8.71696 143.249L8.60254 143ZM8.06553 140.477C7.63905 138.726 7.36729 136.91 7.32178 135.109C8.401 135.892 8.12665 138.045 8.64155 139.351C8.3815 139.599 8.66495 141.375 8.06553 140.477ZM6.66125 128.636C7.4206 126.941 7.28928 130.264 6.66125 128.636ZM6.56633 127.145C6.29978 123.915 6.47791 120.655 6.4142 117.412C6.39209 115.149 6.56893 112.895 6.96811 110.669C7.36079 107.304 7.04353 103.813 8.06553 100.549C8.8912 97.8162 9.24877 94.9465 10.2175 92.2459C10.3709 90.4944 11.207 89.0615 11.7544 87.4141C12.1861 85.7368 12.2654 84.0763 13.4642 82.7201C14.4758 80.8062 14.8321 78.6178 16.0843 76.817C16.7916 75.2657 17.3793 73.7873 18.231 72.2413C19.2491 70.2207 20.1346 68.1013 21.4127 66.2315C22.4438 64.7804 23.2318 63.068 24.246 61.5571C25.4891 58.807 27.5084 56.5003 29.3781 54.156C31.0334 52.0521 32.1139 49.5595 33.9291 47.5688C35.9614 44.9813 38.532 42.8619 40.4447 40.1807C41.888 38.9871 43.2455 37.8468 44.7993 36.7727C47.5025 34.9459 49.7052 32.4741 52.567 30.8748C53.1964 30.105 55.1585 29.841 53.8985 31.1153C52.5189 31.9878 51.1172 32.8668 49.882 33.92C48.6519 35.4101 46.643 36.1057 45.742 37.8741C44.521 39.1392 42.884 39.8739 41.745 41.2678C40.1625 42.8541 38.4722 44.365 37.09 46.1294C36.0264 47.6807 34.6676 49.0602 33.5728 50.6049C32.6756 52.3278 31.2609 53.6905 30.2207 55.3106C29.5979 56.8579 28.5993 58.2466 27.5851 59.5729C26.8582 61.1215 25.6464 62.3502 24.7557 63.8091C24.1394 65.4995 22.9809 66.8751 22.4035 68.5915C20.9693 70.6498 19.8017 72.8759 18.3649 74.9342C17.6316 76.5829 16.4015 77.9443 16.0869 79.7516C15.373 81.1793 14.5161 82.5719 14.26 84.1725C12.9584 86.1177 12.3694 88.4036 11.913 90.6661C11.5385 92.3564 10.6713 94.0181 10.657 95.7423C10.4489 97.8877 10.012 100.016 9.8716 102.176C9.51273 104.883 9.32289 107.698 8.16305 110.21C8.61814 111.963 7.9264 113.756 7.93031 115.567C7.57403 118.384 7.35299 121.247 7.52332 124.083C7.96541 124.776 7.76387 127.907 6.56763 127.145H6.56633ZM13.8465 110.456C12.9974 109.763 13.8387 107.187 14.4719 107.654C15.3639 108.984 14.3055 109.509 13.8465 110.456ZM14.2314 105.105C14.6098 102.726 14.9309 100.33 15.0427 97.9293C15.9867 94.0727 17.2909 90.3124 18.4312 86.5104C19.1763 84.547 19.6795 82.3808 20.9993 80.7138C22.0564 81.7593 20.0917 83.5952 20.0098 84.9969C19.3622 86.7263 18.846 88.4361 18.1855 90.159C17.8565 91.8792 17.5171 93.5279 16.8059 95.1663C16.1454 98.1491 16.0869 101.259 15.0518 104.154C15.5537 105.165 13.9544 107.618 14.2314 105.105ZM227.324 94.3393C227.183 92.4227 229.074 95.2664 227.523 94.7034L227.403 94.5395L227.324 94.3393ZM227.04 92.2277C226.415 90.1108 226.022 87.9147 225.046 85.9188C224.643 84.2883 224.306 82.646 223.786 81.0441C223.461 79.3746 223.032 77.7427 222.462 76.1473C221.056 73.3908 220.37 70.3234 218.813 67.6306C217.55 65.1601 216.49 62.5739 214.948 60.2568C214.407 58.1517 216.574 60.5208 216.672 61.3867C218.358 63.8962 219.885 66.5475 220.838 69.4328C221.461 71.2843 222.796 72.8655 223.09 74.821C223.766 76.4282 224.424 78.0938 224.865 79.7959C225.23 81.771 225.918 83.6303 226.534 85.5287C227.044 87.6195 227.395 89.7715 227.563 91.9104C227.582 92.2186 227.209 92.9285 227.039 92.2277H227.04ZM23.5361 74.8952C23.4619 73.0397 25.1016 71.5587 25.6789 69.8319C26.9167 67.1287 28.7852 64.796 30.0725 62.1175C31.1751 59.7536 32.9201 57.811 34.3855 55.6851C35.1656 53.7516 36.9119 52.4617 38.0821 50.7714C40.7437 47.5506 43.763 44.6211 47.0058 41.992C47.8003 41.6682 48.9731 39.9727 49.6141 40.4512C48.466 41.953 47.4479 43.5991 46.1398 44.9865C44.6523 46.4376 42.8801 47.7834 42.1324 49.7832C40.4525 50.7792 39.6762 52.6841 38.1952 53.9323C36.7766 55.2885 35.5479 56.9346 33.8693 57.9592C32.6054 59.1217 32.2673 61.0175 31.0425 62.1461C30.88 63.6986 29.3066 64.3162 29.1584 65.8882C28.6981 67.5773 27.2106 68.6812 26.6398 70.326C25.6763 71.6939 25.5697 73.4519 24.3149 74.6585C23.9587 75.0629 23.7428 76.0823 23.5361 74.8939V74.8952ZM213.615 57.9982C212.839 57.2688 212.944 55.4679 213.823 57.1622C214.426 57.7278 215.179 59.9382 213.908 58.3922L213.762 58.2024L213.615 57.9982ZM212.163 55.1741C211.098 54.5187 211.869 53.5396 212.411 54.7905C212.652 55.2352 212.801 55.936 212.163 55.1741ZM207.852 49.6766C206.976 48.6741 208.162 47.9264 208.539 49.3034C209.019 49.9041 208.188 50.2292 207.852 49.6766ZM205.998 46.9538C205.438 46.4714 203.92 44.1985 205.548 45.1906C206.035 45.8057 207.946 47.444 206.882 47.8731C206.504 47.665 206.237 47.3023 205.998 46.9538ZM202.498 42.8892C201.666 42.2117 201.021 40.5305 202.416 41.9309C202.853 42.386 204.875 44.0256 203.798 44.2037C203.296 43.8397 202.905 43.3482 202.498 42.8879V42.8892ZM199.116 39.8258C196.849 37.4749 194.196 35.5375 191.879 33.2399C190.821 32.3974 188.624 31.5067 188.68 30.1414C192.25 31.6367 194.487 35.0551 197.498 37.3501C198.571 38.2863 200.307 39.5488 200.693 40.6735C200.038 40.8543 199.514 40.2483 199.117 39.8258H199.116ZM50.2422 39.8193C51.0405 38.3968 52.8453 37.8728 54.1274 36.9184C54.966 36.6154 56.6317 34.5662 57.1492 35.6792C55.5693 36.5062 54.5512 38.112 52.883 38.7817C52.2849 39.0924 50.7298 40.9336 50.2422 39.8193ZM57.2051 34.6429C58.0711 33.552 59.7991 33.3166 60.6859 32.1126C62.7988 30.9541 64.4814 29.0089 66.8751 28.3665C68.3834 27.5799 69.7669 26.6281 71.1985 25.6984C72.8004 24.9755 74.3126 24.0055 75.9913 23.4815C77.5191 23.2916 78.5788 21.8067 80.13 21.5207C84.235 20.6495 88.1747 19.0684 92.2108 17.902C93.7867 17.4638 95.3834 17.1414 96.9723 16.6798C99.5547 15.6916 102.253 14.9985 104.933 14.3237C109.461 13.2913 114.123 13.2159 118.718 12.6893C122.144 12.0612 125.665 12.3837 129.13 12.4331C132.447 12.6152 135.867 12.6646 139.01 13.8621C139.34 14.8334 137.004 13.6307 136.271 13.7945C130.043 13.2484 123.772 13.2081 117.528 13.4681C112.878 13.762 108.247 14.4628 103.787 15.8333C99.7757 16.9216 95.7761 18.1244 91.7271 19.0229C89.9509 19.7692 87.9836 19.9629 86.1853 20.7041C83.7083 21.4855 81.2456 22.3099 78.8727 23.3722C77.272 23.8065 75.9588 24.8103 74.3985 25.3447C73.1333 26.3784 71.7225 26.8725 70.2961 27.6228C68.4472 28.5551 66.7737 29.8059 64.9612 30.7083C63.4723 31.5925 61.7911 32.1542 60.6196 33.552C59.6769 33.825 57.9566 35.6948 57.2038 34.6429H57.2051ZM185.624 28.334C183.072 26.2835 180.062 24.9429 177.301 23.224C175.716 22.8066 174.38 21.8925 173.186 20.7951C171.752 19.5209 169.981 18.7927 168.222 18.1049C167.193 18.0099 166.785 16.3352 167.899 17.2961C169.521 17.9449 171.107 18.2518 172.406 19.5274C174.142 19.9681 175.446 21.3607 177.221 21.7378C178.918 23.2058 180.83 24.4306 182.782 25.5307C183.847 26.7373 185.567 27.39 186.541 28.507C186.242 28.6786 185.89 28.4745 185.624 28.334ZM58.6705 27.1248C59.4311 25.7673 61.6858 25.2407 62.9795 24.1017C64.7908 22.9757 66.7464 22.0993 68.5486 20.968C69.8787 19.881 71.7446 19.8004 73.1632 18.8135C75.1279 17.9566 77.1745 17.2662 79.056 16.2377C81.0077 15.8775 82.7696 14.9309 84.6549 14.3913C86.3804 13.7867 88.124 13.4239 89.8989 13.0351C92.3122 11.9338 94.9816 11.5281 97.4963 10.696C99.3037 10.1343 101.186 9.83389 102.986 9.30078C105.992 9.29948 108.852 8.05903 111.866 8.03173C112.241 8.99912 109.439 8.99132 108.582 9.33069C105.297 10.1525 101.976 10.8247 98.6237 11.3058C96.9866 11.8337 95.3899 12.4383 93.7191 12.8596C91.8194 13.264 90.0679 13.8972 88.2151 14.4108C86.7302 15.2534 85.0242 15.4445 83.4613 16.0622C80.2835 17.1076 77.1524 18.3649 74.1189 19.7965C71.9202 20.4037 69.9373 21.5987 67.8113 22.4243C66.2302 23.5621 64.324 24.0822 62.7351 25.2368C61.3529 25.6581 59.9941 27.1469 58.6705 27.1248ZM156.613 17.7525C157.323 18.5639 156.684 16.8891 156.613 17.7525ZM163.061 15.8099C161.247 15.4796 159.645 14.589 157.826 14.2392C155.916 13.4824 153.938 12.8739 151.975 12.2628C148.37 11.4163 144.722 10.7623 141.079 10.103C138.864 9.58684 142.097 9.43731 142.758 9.71557C144.986 10.2838 147.304 10.211 149.532 10.7896C151.362 10.9781 153.071 11.3617 154.668 12.2316C156.294 12.9064 157.874 13.55 159.579 13.9674C161.373 14.5577 163.274 15.0544 164.889 16.0205C165.006 16.4964 163.32 15.9308 163.06 15.8099H163.061ZM144.364 15.1741C143.892 15.0037 141.203 14.7398 142.504 14.2665C143.387 14.7164 145.704 14.4901 145.74 15.3639C145.288 15.4874 144.771 15.4055 144.364 15.1741ZM134.766 9.47892C133.055 9.23447 131.35 8.80148 129.666 8.67796C131.385 8.06033 133.334 8.71176 135.143 8.65715C136.463 8.75857 138.292 8.98612 139.136 9.59724C137.704 9.8872 136.21 9.57644 134.766 9.47892ZM127.668 8.80018C126.486 7.98492 129.452 8.25017 127.943 8.85089L127.668 8.80018ZM113.055 8.22937C114.017 7.86399 116.586 7.43751 116.807 8.06293C115.642 8.32168 114.146 8.52713 113.055 8.22937ZM117.895 8.14745C118.953 7.9095 121.334 7.73137 121.764 8.30868C120.506 8.44131 119.111 8.52453 117.895 8.14745ZM209.807 196.752C209.532 195.72 208.115 197.857 209.589 197.024L209.725 196.894L209.807 196.752ZM2.79427 139.709C2.25986 140.568 2.25336 139.179 2.79427 139.709ZM1.81127 127.945C2.06612 128.372 0.59552 127.787 1.81127 127.945ZM236.81 104.397C236.691 105.498 235.995 103.42 236.81 104.397ZM2.14934 101.817C1.70204 102.908 0.955693 100.807 2.14934 101.817ZM3.31047 96.9177C3.79937 96.0934 0.820466 97.4924 2.88528 97.0946L3.11933 97.0152L3.31047 96.9177ZM4.08413 94.4836C3.4366 96.0023 3.03872 92.1705 4.08413 94.4836ZM3.56792 92.0183C2.27286 91.2512 2.65254 92.6529 3.76946 92.2212L3.73696 92.1432L3.56792 92.0183ZM3.56792 90.9872C2.27286 90.2188 2.65254 91.6217 3.76946 91.1888L3.73696 91.112L3.56792 90.9872ZM5.11524 89.7169C4.81748 88.5895 2.4731 88.1474 4.08803 89.566C4.31557 89.7871 4.9254 90.2383 5.11524 89.7169ZM8.98352 77.1693C8.50762 76.3229 6.95901 78.2017 8.58304 77.5672C8.74687 77.4892 8.96271 77.3787 8.98352 77.1693ZM8.98352 74.2255C8.375 75.2293 8.28918 73.1866 8.98352 74.2255ZM12.593 68.5369C12.1666 67.8503 11.7713 69.5914 12.593 68.5369ZM16.8475 60.301C16.4015 61.3919 15.6552 59.2907 16.8475 60.301ZM18.573 56.5146C18.8265 56.9424 17.3559 56.3586 18.573 56.5146ZM29.0973 43.5237C28.5616 44.3819 28.5564 42.9945 29.0973 43.5237ZM33.1632 38.9455C32.9409 37.8702 32.1451 40.329 33.1632 38.9455ZM34.3699 36.5543C34.3491 37.8819 33.1736 35.9796 34.3699 36.5543ZM199.29 30.287C198.377 29.4003 198.187 30.7538 199.29 30.287ZM49.2592 24.0224C49.514 24.4501 48.0434 23.8663 49.2592 24.0224ZM184.125 19.123C184.38 19.5508 182.909 18.9669 184.125 19.123ZM60.2997 18.2531C59.764 19.1113 59.7588 17.7226 60.2997 18.2531ZM181.24 16.9788C179.793 16.1987 180.419 17.4404 181.497 17.1869L181.24 16.9788ZM63.2838 16.2351C62.6987 15.3067 60.9589 16.3859 62.6363 16.4626C62.7884 16.4184 63.2864 16.5081 63.2838 16.2351ZM64.2616 15.044C64.7362 14.3874 67.1781 14.7814 65.2043 14.2418C64.2928 13.8127 62.5297 16.382 64.2616 15.044ZM63.2656 14.4004C62.8157 13.4278 62.1968 15.2534 63.2656 14.4004ZM175.181 13.8842C174.846 12.9948 173.586 14.4446 174.958 14.0662L175.181 13.8842ZM70.0985 12.8531C69.4913 13.8569 69.4041 11.8129 70.0985 12.8531ZM72.6249 10.562C71.7056 9.00692 72.292 12.8375 72.7653 10.7831L72.6249 10.562ZM169.922 10.198C170.553 11.6296 168.259 9.52833 169.922 10.198ZM78.701 8.59084C78.7894 10.1134 77.6777 7.62214 78.701 8.59084ZM164.222 8.36979C163.463 7.70276 161.957 8.58174 163.74 8.46081L163.99 8.44001L164.222 8.36979ZM84.2844 6.68205C83.789 5.86029 81.6825 5.26607 83.2142 6.55593C83.4288 6.73406 84.1933 7.22036 84.2844 6.68205ZM153.78 4.34288C153.557 3.65504 151.568 2.74616 152.313 4.28437C152.951 3.82667 153.271 5.10483 153.78 4.34288ZM93.3576 3.90859C93.6112 4.33638 92.1406 3.75256 93.3576 3.90859ZM143.593 1.79436C142.865 0.882878 141.746 1.9556 141.011 1.92049C141.85 1.9569 142.807 2.11813 143.593 1.79436ZM108.008 1.5057C107.59 0.800962 106.018 1.63833 107.507 1.76446C107.647 1.74755 107.984 1.72675 108.008 1.5057ZM111.732 1.27296C111.23 0.630628 108.295 1.02201 110.457 1.31847C110.862 1.27426 111.438 1.70985 111.732 1.27296ZM136.68 1.07272C136.933 1.5005 135.463 0.916686 136.68 1.07272ZM234.428 157.844C233.331 156.709 235.108 156.651 234.72 157.858L234.595 157.879L234.428 157.844ZM72.7497 7.79768C73.6989 7.50772 73.1502 8.26577 72.7497 7.79768ZM99.7549 0.891981C100.413 0.165133 101.608 1.12733 100.159 0.982999L99.9499 0.962195L99.7549 0.891981Z" fill="#006CFF"/>
<path d="M235.957 241.018C233.396 240.759 230.847 240.412 228.314 239.953C226.27 240.009 224.217 239.853 222.23 239.31C219.266 238.51 216.158 238.294 213.246 237.32C211.399 237.134 209.509 237.238 207.733 236.582C204.287 235.457 200.533 235.202 197.312 233.456C196.13 232.266 194.917 231.442 193.213 231.529C191.357 230.613 189.251 230.373 187.448 229.317C185.871 228.703 184.762 227.337 183.138 226.827C181.348 225.739 179.414 224.926 177.654 223.765C175.95 222.301 173.576 221.924 171.948 220.373C169.418 218.682 167.028 216.78 164.943 214.554C163.134 213.585 162.924 211.325 161.178 210.429C159.456 210.15 158.423 208.564 157.366 207.41C155.575 207.439 155.103 205.31 153.791 204.366C152.096 202.645 150.723 200.583 148.822 199.079C147.294 198.234 146.611 196.427 145.401 195.212C143.79 193.239 141.688 191.621 140.549 189.304C139.253 188.235 138.923 186.52 137.906 185.295C137.154 183.762 135.81 182.34 135.483 180.712C134.565 179.23 134.097 177.503 133.159 175.974C132.941 174.122 131.018 173.359 130.606 171.532C129.671 169.563 128.574 167.661 128.081 165.512C127.363 163.715 127.201 161.684 126.343 159.999C125.578 158.662 125.898 156.621 124.895 155.678C126.153 154.924 123.3 153.185 124.274 151.905C124.643 151.736 126.753 151.685 125.365 151.646C123.499 151.843 123.104 149.591 123.339 148.188C123.429 146.723 121.461 146.308 121.945 144.565C121.502 143.1 121.074 141.575 121.459 140.153C119.882 139.562 121.747 137.326 120.837 136.333C120.568 135.309 121.816 134.485 121.078 133.316C120.723 132 120.268 130.491 120.602 128.879C120.458 127.469 121.742 126.087 120.217 125.373C120.84 123.721 119.731 121.84 120.67 120.283C121.201 118.579 120.213 116.738 120.521 114.909C120.59 110.89 119.967 106.75 121.161 102.846C120.417 101.636 121.278 100.912 122.448 100.869C122.118 100.523 120.263 100.449 120.998 99.1035C121.499 98.3077 122.775 98.2271 121.594 97.2402C120.452 95.9399 122.305 95.1416 121.576 93.619C121.872 92.0027 121.79 90.3241 122.478 88.7235C122.24 87.1306 124.958 88.0135 124.735 87.0019C123.379 87.6117 122.662 86.8628 123.382 85.543C123.174 83.7578 124.765 82.5719 125.014 80.8218C125.62 79.0521 126.518 77.4606 127.329 75.804C128.016 74.4024 128.232 72.8551 129.071 71.5418C129.792 70.1128 130.596 68.7215 131.196 67.2132C131.792 65.2732 133.647 64.0276 134.035 61.9861C134.568 60.3933 135.777 59.11 136.47 57.6043C136.994 55.9282 138.535 54.5681 139.509 53.0962C140.642 51.6504 141.166 49.8014 142.463 48.4738C142.489 47.5883 144.788 48.3568 143.493 47.3777C143.028 45.6236 145.83 45.4468 146.097 44.3858C146.045 42.7969 148.225 41.7788 149.109 40.498C150.429 39.1743 151.262 37.4762 152.796 36.3437C153.794 35.3308 154.972 34.756 155.28 33.2841C155.933 32.4858 158.311 33.2646 158.238 32.5092C156.193 32.1243 159.481 31.0334 159.614 29.9802C161.093 28.6565 163.217 28.217 164.521 26.5761C166.123 25.6308 167.335 24.1953 168.764 23.0186C170.07 21.9029 171.772 21.1969 172.889 19.9174C173.536 18.4468 176.225 18.911 176.464 17.0269C177.572 15.9698 179.404 16.5654 179.949 15.1741C181.753 14.8828 182.725 12.9857 184.473 12.7023C186.22 11.6257 188.34 11.2668 189.923 9.84169C191.491 8.48292 193.844 8.76117 195.649 7.74307C196.45 7.46611 197.268 7.15665 196.311 6.59494C197.013 5.61714 198.333 7.77297 199.124 6.48311C199.936 6.84199 201.205 5.65615 201.42 5.97991C202.171 6.31278 202.546 4.21025 203.784 5.02942C205.341 4.90199 206.899 4.4352 208.458 4.27267C208.357 3.15054 210.187 3.15574 210.906 2.9503C211.691 3.58353 213.897 3.74346 212.492 2.58232C213.792 1.52651 215.708 2.09082 217.284 1.93219C220.548 1.60973 223.762 0.882879 226.976 0.243149C230.02 -0.109222 233.114 0.0728147 236.177 0C242.901 0.0494102 249.63 -0.0585119 256.348 0.226246C257.832 0.854273 259.283 0.69174 260.913 0.745051C263.055 0.823067 265.159 1.29636 267.3 1.31327C268.92 1.80867 270.59 1.79176 272.137 2.50301C273.449 2.9854 275.702 3.13103 275.246 4.60163C276.674 3.13233 278.853 4.61333 280.484 5.10613C282.186 5.45981 283.743 6.23476 285.335 6.9083C287.469 7.38029 289.215 8.74167 291.138 9.69606C292.255 11.0691 294.197 11.1394 295.342 12.463C295.991 13.0091 296.218 14.221 296.79 12.896C298.289 13.6866 299.812 14.8113 301.446 15.5498C303.306 16.6187 305.205 17.6849 306.699 19.2426C308.33 20.6703 310.373 21.466 311.968 22.9392C313.236 24.1823 315.007 24.8051 316.073 26.2276C317.671 27.1326 319.036 28.3743 320.476 29.5017C322.305 30.3 322.879 32.53 324.299 33.7457C326.183 34.3322 326.999 35.9965 328.558 36.9496C330.648 38.2381 331.843 40.5032 333.538 42.2247C334.116 43.1258 336.734 45.4429 334.499 45.7875C335.374 46.2894 336.399 45.2362 337.132 46.5832C339.109 48.2983 339.731 50.9716 341.474 52.8635C342.191 53.8413 341.684 55.7254 343.29 55.7644C343.454 57.6186 345.298 58.5001 345.789 60.2464C346.512 61.8977 346.828 63.6492 347.608 65.2498C348.136 66.8998 349.045 68.5122 349.68 70.1739C350.109 71.7329 350.469 73.3153 351.211 74.7677C352.029 76.4711 352.244 78.3396 352.545 80.169C353.393 81.6851 353.448 83.4509 354.055 85.0658C354.656 87.3296 355.552 89.5439 355.696 91.9C356.498 94.5304 356.947 97.2467 357.258 99.9772C357.754 101.4 357.382 103.181 358.406 104.203C358.408 105.03 357.064 105.614 358.265 106.308C359.191 108.928 359.07 111.782 358.861 114.51C359.254 116.101 359.372 117.779 358.628 119.293C358.75 120.381 359.325 121.382 358.974 122.426C360.175 123.533 357.857 125.423 358.904 126.422C358.759 128.062 358.424 129.683 358.272 131.32C358.04 133.109 359.59 134.882 358.821 136.554C357.835 137.928 359.406 140.127 357.756 141.021C357.483 142.394 357.159 143.764 357.209 145.213C356.687 147.057 356.18 148.937 355.833 150.794C355.574 151.694 354.778 152.153 355.727 152.815C355.305 154.296 355.439 156.032 353.813 156.769C353.67 158.342 353.136 159.73 352.791 161.242C352.564 162.758 352.738 164.267 351.669 165.552C351.6 167.275 350.553 168.606 350.111 170.113C349.733 172.116 348.499 173.858 348.008 175.823C346.884 177.542 345.17 178.872 344.48 180.867C343.252 181.945 342.721 183.494 341.639 184.728C340.43 185.799 340.019 187.549 338.847 188.597C338.244 190.044 336.665 190.591 335.996 191.877C335.022 193.445 333.55 194.467 332.157 195.645C331.598 196.95 331.008 199.434 328.925 198.585C328.158 199.51 328.212 201.513 326.87 202.416C325.491 203.784 324.178 205.367 322.429 206.256C321.356 207.079 320.614 208.834 319.329 209.782C317.571 211.457 315.817 213.195 313.726 214.45C312.046 215.165 311.096 217.078 309.396 218.009C308.152 219.23 306.231 219.345 305.174 220.813C303.117 221.989 301.34 223.649 299.181 224.684C296.349 226.19 293.36 227.406 290.633 229.101C288.892 229.857 286.808 229.584 285.235 230.775C283.413 231.746 281.203 231.373 279.446 232.516C277.83 233.298 276.177 233.884 274.51 234.504C272.179 235.844 269.392 236.073 267.044 237.368C265.166 238.125 263.056 237.725 261.208 238.576C259.447 238.873 257.747 239.464 255.932 239.492C251.87 239.811 247.774 239.941 243.76 240.653C241.593 240.83 239.412 240.936 237.255 241.14C236.821 241.118 236.388 241.075 235.957 241.018ZM249.904 235.846C251.796 235.493 253.658 235.007 255.594 234.958C257.481 234.759 259.284 234.116 261.19 234.011C262.983 233.601 264.805 233.439 266.631 233.213C268.845 232.849 271.05 232.286 273.062 231.296C274.928 231.026 276.632 230.225 278.42 229.725C279.746 229.014 280.512 227.993 281.998 227.679C283.716 227.497 285.205 226.488 286.856 226.055C288.5 225.172 290.372 224.796 291.918 223.73C294.39 222.943 296.083 220.729 298.583 220.018C299.954 219.115 301.467 218.561 302.836 217.658C305.209 217.076 306.595 214.835 308.698 213.793C310.3 212.203 312.292 211.072 313.841 209.413C315.085 208.186 316.715 207.484 317.895 206.174C320.411 203.91 322.953 201.664 325.149 199.083C326.854 197.596 328.401 195.95 329.84 194.205C331.252 193.057 332.423 191.741 333.24 190.095C334.298 188.937 335.145 187.631 336.253 186.503C337.005 185.168 337.915 183.938 338.607 182.595C339.766 180.506 341.519 178.816 342.722 176.771C343.555 175.22 344.633 173.792 345.367 172.195C345.584 170.64 346.368 169.112 347.058 167.631C347.876 166.106 348.234 164.384 349.179 162.958C349.892 161.064 350.357 159.061 351.228 157.293C351.626 155.638 352.59 154.164 352.863 152.456C353.919 150.992 354.186 149.226 354.258 147.456C354.385 145.176 354.757 142.922 355.087 140.673C355.133 139.096 356.519 137.844 356.112 136.356C356.054 134.463 356.314 132.503 356.542 130.745C357.092 129.696 355.588 128.632 356.277 127.365C356.367 125.815 356.254 123.793 357.496 122.94C358.31 122.903 358.917 122.88 357.756 122.779C355.413 122.457 357.337 119.589 356.74 118.083C356.259 116.45 356.143 114.75 356.23 113.042C356.516 111.17 355.549 109.508 355.558 107.664C355.812 105.862 354.549 104.487 354.79 102.696C354.69 100.282 354.049 97.9488 353.426 95.6318C352.973 93.8972 353.397 91.8753 352.168 90.4138C351.573 88.5674 351.374 86.6092 350.787 84.7525C350.556 82.9217 350.394 80.9921 349.403 79.3811C349.128 77.8416 347.855 76.3827 348.201 74.8184C347.998 72.9097 347.243 71.1036 346.436 69.3521C345.809 67.7203 345.118 66.2146 344.511 64.5555C343.709 63.1889 342.843 61.873 342.139 60.4401C341.021 59.1282 340.353 57.4872 339.059 56.2559C337.833 54.8035 336.639 53.3082 335.568 51.7453C334.993 49.6428 333.065 48.3347 331.926 46.5533C328.732 42.1857 325.058 38.1952 321.377 34.2385C320.255 32.8434 318.336 32.214 317.191 30.7265C315.293 28.9075 313.216 27.2977 311.129 25.7088C309.936 24.3513 308.364 23.4971 307.001 22.3359C304.819 20.7041 302.626 19.0307 300.196 17.8045C299.071 16.6811 298.101 15.7787 296.409 15.7592C294.991 15.1533 293.926 14.3042 292.573 13.5969C291.023 12.9142 289.596 11.8428 287.972 11.4839C286.272 10.6817 284.574 9.84039 282.944 8.9042C281.295 8.44131 279.607 7.51812 277.888 6.98631C276.334 6.03452 274.53 5.78227 272.989 4.85908C270.938 4.67575 269.014 3.73436 266.94 3.75906C265.247 3.59913 265.605 2.62783 266.876 2.28846C265.337 1.30546 265.043 3.91119 263.337 3.19475C259.436 2.79297 255.659 1.63573 251.744 1.33537C250.047 0.637129 248.307 0.979098 246.54 1.16764C241.777 1.30937 236.942 0.981699 232.262 2.08302C230.287 2.41069 228.301 1.82167 226.325 2.24035C225.714 2.60053 225.134 0.654032 224.945 1.69164C226.152 2.62133 222.708 3.05432 221.939 3.31047C217.331 4.4469 212.593 4.99691 208.047 6.39209C206.502 6.69766 205.081 6.82898 203.795 7.77297C202.372 8.24367 201.205 6.72366 199.984 8.02523C199.605 8.56483 201.134 7.79768 201.463 7.73007C201.781 9.66356 198.438 9.56084 197.34 10.7454C195.592 11.5411 193.917 12.5748 192.014 13.0312C190.244 13.8231 188.652 14.9582 186.819 15.6344C185.398 16.4782 183.869 17.2012 182.319 17.7824C181.236 18.651 180.283 19.5976 178.895 20.0722C177.563 20.9446 176.106 21.6182 174.845 22.6168C173.477 23.8767 171.735 24.3292 170.427 25.5398C169.113 26.866 167.586 27.8854 166.115 29.1129C164.735 29.9399 164.035 31.5249 162.391 31.9787C160.147 34.5779 157.505 36.8079 155.097 39.2575C153.419 40.7099 151.924 42.3535 150.803 44.2779C149.635 45.478 148.26 46.513 147.248 47.8926C146.117 49.3294 145.226 50.9313 143.99 52.2914C143.077 53.9245 141.902 55.3769 141.008 57.0178C140.146 58.6276 138.868 60.0553 138.347 61.8145C136.823 62.5388 137.098 64.6452 135.802 65.5138C135.649 66.4057 134.716 66.6229 134.838 67.7359C134.338 69.3716 132.856 70.2597 132.594 71.9748C131.584 73.6079 131.544 75.6324 130.194 77.0744C129.41 78.229 129.375 79.8115 128.687 80.8036C129.427 82.1064 127.093 82.6304 127.366 83.603C127.123 84.9644 126.396 86.6066 126.263 88.1709C125.78 89.2241 126.278 91.2642 125.133 91.6205C125.72 92.7959 123.745 92.8076 124.955 93.9583C125.132 95.3743 124.534 97.2688 123.442 97.9358C124.985 98.3311 123.443 100.306 122.226 99.7744C122.845 100.062 124.414 101.569 123.516 102.822C123.119 104.817 123.953 106.783 123.449 108.732C123.173 111.897 123.373 115.078 122.967 118.237C122.44 120.085 123.609 121.898 122.821 123.641C123.238 124.895 123.049 126.729 123.318 127.544C121.567 127.859 124.013 128.445 123.599 129.615C123.97 132.157 124.586 134.84 123.811 137.359C125.068 138.369 122.615 137.556 123.535 138.503C125.18 140.207 125.241 142.71 125.292 144.923C126.028 146.49 126.964 147.992 126.984 149.786C127.389 151.379 128.305 152.889 127.848 154.44C128.915 155.088 128.024 155.714 129.214 156.271C129.693 158.319 129.497 160.668 130.788 162.451C131.675 163.788 132.67 165.211 133.2 166.8C133.844 168.769 135.273 170.384 135.793 172.412C136.681 173.787 137.676 175.139 138.388 176.646C139.705 179.045 140.789 181.618 142.4 183.826C143.288 185.358 144.347 186.815 145.324 188.313C146.142 189.798 147.216 190.762 148.047 192.083C149.082 193.509 150.152 194.929 151.377 196.245C152.486 197.65 154.084 198.574 155.034 200.134C155.995 201.491 157.32 202.584 158.15 204.027C160.403 203.876 160.659 206.59 162.296 207.67C163.654 208.801 165.326 209.621 166.24 211.251C166.469 212.428 167.795 212.557 168.573 212.549C167.591 213.342 169.595 213.692 169.613 214.549C171.116 215.424 172.697 216.193 173.992 217.382C175.691 218.139 177.133 219.357 178.927 219.953C180.749 220.724 182.277 222.054 184.152 222.727C186.637 223.979 189.046 225.498 191.696 226.341C193.064 227.451 194.768 228.021 196.375 228.689C198.134 229.442 199.934 230.282 201.76 230.753C203.752 230.966 205.425 232.422 207.491 232.338C209.428 232.873 211.261 233.794 213.274 234.088C215.096 234.421 216.968 234.359 218.759 234.9C223.285 235.57 227.868 235.729 232.412 236.249C238.15 236.377 243.907 236.348 249.631 235.885L249.905 235.844L249.904 235.846ZM236.58 231.234C235.113 231.045 233.435 231.144 231.898 230.875C230.145 230.405 228.299 230.132 226.61 230.97C224.893 231.122 223.273 230.344 221.56 230.305C219.154 230.059 216.712 229.844 214.415 229.08C212.468 228.815 210.67 227.971 208.752 227.525C206.967 226.863 205.054 226.953 203.381 226.026C201.981 225.079 200.338 224.516 198.834 223.718C197.152 223.272 195.713 222.186 194.013 221.835C192.583 220.644 190.837 219.856 189.033 219.371C187.409 218.832 185.811 218.357 184.484 217.221C182.901 216.339 181.253 215.573 179.674 214.686C177.869 214.165 176.872 212.189 175.04 211.376C172.374 210.116 170.481 207.785 168.085 206.137C166.941 204.89 165.436 204.083 164.191 202.967C163.007 201.835 162.01 200.589 161.032 199.303C159.943 197.778 158.805 196.379 157.275 195.303C156.126 193.677 154.593 192.432 153.332 190.92C152.278 189.43 151.258 187.978 150.2 186.499C149.732 184.637 147.788 184.142 146.815 182.705C145.143 180.469 143.637 178.091 142.349 175.607C141.445 172.956 139.184 170.963 138.551 168.201C137.641 166.842 137.278 165.295 136.28 163.994C135.563 162.606 134.902 161.174 134.463 159.679C133.449 158.197 132.973 156.414 132.479 154.691C132.155 153.791 131.771 151.277 132.809 153.295C133.845 154.747 134.796 156.166 135.078 157.982C135.888 160.211 137.084 162.262 138.175 164.352C138.79 166.259 139.913 167.972 140.857 169.731C141.876 171.216 142.676 172.821 143.501 174.41C145.767 177.81 147.972 181.255 150.347 184.581C151.306 186.205 152.653 187.53 153.848 189.014C154.475 190.568 156.017 191.28 156.89 192.725C158.371 193.815 159.837 195.052 160.919 196.562C163.054 199.138 165.583 201.381 168.037 203.655C170.148 205.282 172.053 207.149 174.127 208.821C175.924 210.259 177.862 211.511 179.613 213.007C183.184 215.33 186.953 217.398 190.968 218.841C194.811 220.73 199.004 221.733 202.957 223.335C206.932 224.864 211.096 225.831 215.173 227.047C219.536 228.088 224.024 228.521 228.485 228.928C234.99 229.442 241.532 229.303 248.042 228.939C250.9 228.321 253.85 228.24 256.739 227.766C259.727 227.32 262.834 227.268 265.654 226.091C268.793 225.832 271.791 224.797 274.87 224.186C278.143 223.176 281.256 221.718 284.52 220.669C289.145 219.015 293.378 216.465 297.824 214.417C299.713 214.675 296.879 216.318 296.113 216.581C294.2 217.362 292.918 219.217 290.87 219.711C289.464 220.911 287.71 221.337 286.155 222.21C284.11 223.807 281.385 224.011 279.052 225.017C277.459 225.974 275.58 225.808 273.891 226.518C272.062 226.71 270.277 227.131 268.565 227.792C266.798 228.123 265.229 229.131 263.388 229.009C257.479 229.859 251.564 230.695 245.604 231.084C242.675 231.247 239.728 231.581 236.797 231.33L236.58 231.235V231.234ZM231.14 227.131C229.573 226.662 227.924 227.204 226.378 226.402C224.289 226.235 222.348 225.264 220.249 225.021C218.429 224.546 216.544 224.516 214.711 224.247C212.722 223.589 210.535 224.021 208.609 223.103C205.673 222.333 202.568 221.951 199.898 220.409C197.766 219.518 195.622 218.641 193.668 217.394C191.161 216.277 189.256 214.051 186.575 213.324C185.49 212.148 183.968 211.44 182.829 210.254C181.14 208.756 178.819 208.092 177.433 206.244C175.664 205.088 174.269 203.409 172.523 202.19C170.604 200.514 169.032 198.46 166.906 197.015C165.354 195.995 164.534 194.296 163.208 193.036C161.902 191.867 161.082 190.303 159.893 189.047C158.049 187.389 156.609 185.347 155.038 183.452C153.634 182.189 152.962 180.345 151.696 178.957C150.997 177.555 150.001 176.524 149.03 175.255C148.313 173.68 147.208 172.376 146.438 170.842C145.146 168.577 143.7 166.343 142.888 163.86C142.038 162.629 141.517 161.292 140.813 159.964C140.237 158.38 139.662 156.835 139.005 155.259C138.033 152.505 137.239 149.647 135.927 147.047C135.73 145.464 134.736 144.116 134.573 142.511C134.247 140.618 133.775 138.748 133.33 136.916C133.402 135.703 132.609 134.788 133.226 133.7C132.594 131.275 132.492 128.733 132.351 126.237C132.746 123.204 132.573 120.103 133.26 117.11C133.523 115.275 133.014 113.305 133.771 111.568C134.913 111.173 134.07 113.893 134.252 114.648C133.856 120.03 134.162 125.431 134.139 130.817C132.988 131.654 134.907 132.758 134.634 134.122C135.117 136.792 134.95 139.609 136.093 142.125C135.946 143.794 137.041 145.249 137.096 146.83C137.395 148.762 139.079 150.212 139.375 152.178C139.915 153.629 140.852 155.007 141.103 156.487C142.71 158.004 143.142 160.312 144.18 162.203C144.948 163.885 145.847 165.527 146.371 167.305C147.139 168.717 148.123 169.761 149.066 171.038C150.023 171.704 149.204 172.821 150.456 172.849C151.462 174.164 152.387 175.598 153.482 176.701C153.997 178.468 155.615 179.607 156.212 181.31C157.42 182.665 158.696 183.991 159.488 185.657C160.703 186.93 161.799 188.334 162.897 189.612C164.271 190.421 164.871 192.072 166.08 193.101C167.253 193.891 167.743 195.995 169.31 195.613C169.471 197.191 170.995 198.359 172.174 199.176C173.274 200.278 174.793 200.927 175.838 202.13C177.347 203.587 179.181 204.648 180.668 206.144C182.246 207.656 184.099 208.808 185.971 209.904C187.534 211.164 189.468 211.849 191.07 213.064C192.76 214.2 194.683 214.926 196.344 216.105C198.09 217.15 200.143 217.214 202.061 217.57C203.719 218 205.367 219.448 206.899 219.431C208.054 218.448 209.143 220.822 210.628 220.523C212.316 221.012 213.872 221.837 215.651 221.971C218.292 222.775 220.963 223.475 223.704 223.852C226.859 224.507 230.054 225.033 233.289 224.936H236.991C241.39 225.273 241.218 225.577 243.3 225.094C244.737 224.645 246.471 224.791 248.077 224.292C250.096 223.974 252.065 223.328 254.134 223.458C255.621 222.999 257.198 222.896 258.751 222.692C260.44 222.293 262.106 222.025 263.813 221.743C265.775 221.956 267.337 220.659 269.218 220.625C270.079 220.578 271.378 220.114 269.785 220.255C270.577 219.214 272.751 220.008 273.8 218.832C274.856 218.994 275.977 219.067 276.072 217.86C277.719 217.3 279.372 216.881 281.019 216.175C282.59 215.32 284.332 215.105 285.79 214.312C287.029 212.757 289.107 212.809 290.718 211.901C292.54 211.615 293.257 209.764 295.069 209.688C295.73 208.311 297.917 208.297 298.934 206.881C300.281 205.422 302.288 204.92 303.605 203.407C305.17 202.738 306.378 201.555 307.796 200.576C309.2 199.447 310.542 198.219 311.618 196.775C312.625 195.368 314.54 194.776 315.554 193.327C317.297 191.444 319.138 189.623 321.2 188.1C322.124 186.814 322.677 185.243 323.966 184.213C325.3 182.995 326.213 181.437 327.158 179.927C328.116 178.563 329.353 177.241 329.901 175.686C330.991 174.265 331.488 172.473 332.726 171.142C334.019 168.644 335.632 166.306 336.567 163.632C337.564 160.766 338.984 158.068 339.79 155.134C340.488 153.328 340.661 151.306 341.92 149.758C342.523 148.2 343.138 146.632 343.407 144.917C344.159 141.242 345.339 137.617 345.371 133.837C346.196 126.598 345.787 119.286 345.39 112.031C344.936 107.088 343.769 102.245 343.362 97.2961C343.212 95.7124 342.164 94.5018 342.792 92.8778C341.765 91.5099 342.125 89.5296 340.986 88.0096C339.906 86.0254 339.636 83.7044 338.496 81.7502C337.663 81.2261 336.686 81.5798 338.051 81.035C338.449 79.5592 336.841 78.0847 336.481 76.6063C336.257 74.8679 335.343 73.4233 334.695 71.8148C333.927 70.2168 332.836 68.741 332.493 66.974C331.466 65.086 330.275 63.2825 329.162 61.4413C327.617 59.0319 325.495 57.0712 323.977 54.6384C321.788 52.2407 319.962 49.5244 317.784 47.1059C315.137 43.9268 312.105 41.0961 308.807 38.6022C306.382 36.6414 304.118 34.4544 301.401 32.8915C300.937 31.4456 299.95 30.4938 298.461 29.9919C296.559 28.7085 294.562 27.563 292.666 26.277C290.899 24.6725 288.463 24.1303 286.496 22.8313C284.839 22.2306 283.355 21.1969 281.634 20.695C280.043 19.9343 278.394 19.3531 276.679 18.9669C275.406 18.4507 273.677 17.9657 272.724 17.2428C275.839 17.6511 278.693 19.1061 281.754 19.7692C283.323 20.3517 284.907 20.8614 286.335 21.743C287.905 22.2475 289.494 22.8118 290.704 24.0263C292.328 25.1159 294.19 25.8206 295.684 27.1196C297.224 27.8347 298.087 29.6616 299.855 29.7097C301.224 31.0217 302.94 31.967 304.445 33.1749C306.381 34.6572 308.126 36.3684 309.966 37.9664C314.495 42.0674 318.583 46.6209 322.681 51.1407C323.468 52.662 324.635 53.8153 325.829 55.0076C326.978 56.3235 328.008 57.7655 328.926 59.2309C330.128 60.1996 330.538 62.0135 331.459 63.2916C332.143 64.9117 332.996 66.2549 333.889 67.7632C334.793 69.438 335.388 71.2453 336.386 72.8759C336.872 74.6559 338.075 76.0979 338.483 77.8715C339.688 79.2341 339.428 81.2079 340.417 82.6239C341.411 85.1061 342.673 87.5454 343.31 90.1733C343.758 91.2759 343.787 92.3889 344.45 93.3797C344.48 95.3093 344.925 97.2363 345.215 99.1477C345.481 100.698 346.227 102.459 345.896 103.817C346.446 106.394 346.348 109.066 346.761 111.668C348.13 113.092 346.725 115.179 347.23 116.93C347.244 118.602 347.78 120.35 347.352 121.979C346.441 122.493 348.218 122.972 347.482 123.919C347.209 126.25 347.205 128.618 346.738 130.921C347.407 132.488 346.322 134.177 346.378 135.868C345.965 137.5 345.754 139.155 345.547 140.8C344.668 142.419 344.655 144.221 344.388 146.003C344.09 147.922 342.865 149.52 342.526 151.416C341.904 152.811 341.398 154.21 341.023 155.683C340.202 157.394 339.77 159.225 339.275 161.04C338.357 162.364 337.745 163.894 337.253 165.443C336.369 168.15 334.338 170.314 333.514 173.042C332.286 174.324 331.562 175.87 330.636 177.329C330.068 178.698 329.255 180.099 328.168 181.099C326.921 183.596 325.2 185.856 323.604 188.149C322.097 189.127 322.027 191.472 320.152 191.815C318.801 192.072 319.638 194.376 317.983 194.718C316.61 195.887 315.791 197.588 314.279 198.645C313.058 199.899 311.39 200.624 310.104 201.72C309.014 203.239 307.333 204.295 305.926 205.574C304.436 206.666 302.89 207.584 301.511 208.799C299.804 209.782 297.988 210.584 296.435 211.813C293.33 213.544 290.19 215.227 287.013 216.821C284.942 217.867 282.697 218.535 280.664 219.648C279.303 220.743 277.437 220.531 275.842 221.147C273.58 221.371 271.522 222.439 269.301 222.878C266.718 223.6 264.051 224.052 261.515 224.93C259.83 225.464 258.022 225.61 256.267 225.936C251.778 226.454 247.249 226.512 242.75 226.901C241.087 227.696 239.42 226.765 237.719 227.139C235.533 227.234 233.315 227.384 231.14 227.13V227.131ZM292.103 215.385C291.606 213.962 294.218 214.699 292.792 215.528C292.558 215.607 292.278 215.562 292.103 215.385ZM299.197 213.927C300.604 212.627 302.337 211.663 303.923 210.566C305.355 209.459 306.835 208.404 308.149 207.122C310.521 205.23 312.868 203.303 314.928 201.066C317.523 198.454 320.265 195.973 322.615 193.131C324.094 191.95 325.097 190.264 326.218 188.766C327.495 187.29 328.638 185.706 329.736 184.089C330.96 182.556 331.966 180.867 333.139 179.296C333.885 177.877 335.114 176.681 335.885 175.209C336.694 173.428 337.849 171.827 338.903 170.19C339.743 168.362 340.675 166.587 341.353 164.678C342.344 162.837 342.762 160.748 343.769 158.905C344.427 157.025 344.691 155.021 345.443 153.159C346.357 150.703 346.811 148.129 347.298 145.567C348.14 142.772 348.039 139.807 348.823 136.994C349.535 133.069 350.245 129.098 350.234 125.098C350.18 121.914 350.944 118.754 350.741 115.558C350.864 113.527 350.504 111.498 350.654 109.472C351.105 110.15 351.513 112.634 351.815 113.993C352.073 116.059 352.438 118.19 351.69 120.208C350.893 121.892 352.024 123.573 351.291 125.133C351.029 127.883 351.326 130.663 351.009 133.407C350.652 135.005 350.486 136.667 349.975 138.232C349.708 139.904 349.988 141.677 349.439 143.286C349.018 144.8 348.249 146.394 348.097 148.028C347.611 149.71 347.692 151.569 346.879 153.202C346.846 154.969 346.118 156.359 345.787 158.1C344.974 159.886 344.815 161.996 343.601 163.567C343.412 165.174 342.203 166.154 341.834 167.652C341.078 169.169 340.015 170.481 339.687 172.196C338.869 174.449 336.615 175.758 335.792 178.019C334.939 179.44 333.714 180.586 333.097 182.146C332.222 183.989 330.847 185.446 329.761 187.022C328.761 188.837 327.089 190.199 326.151 192.064C324.816 193.799 323.162 195.242 321.464 196.593C320.437 198.167 318.871 199.137 317.589 200.48C315.901 202.015 314.622 203.953 312.679 205.202C311.132 206.018 310.057 207.448 308.559 208.358C306.368 209.794 304.278 211.375 302.154 212.899C301.544 213.074 299.508 214.874 299.197 213.927ZM131.367 151.49C132.586 152.439 131.26 149.681 131.367 151.49ZM128.82 143C128.487 141.493 129.688 143.08 128.934 143.249L128.82 143ZM128.283 140.477C127.855 138.726 127.584 136.91 127.538 135.109C128.617 135.892 128.344 138.045 128.857 139.351C128.599 139.599 128.882 141.375 128.283 140.477ZM126.877 128.636C127.638 126.941 127.506 130.264 126.877 128.636ZM126.783 127.145C126.517 123.915 126.695 120.655 126.631 117.412C126.609 115.149 126.786 112.895 127.185 110.669C127.577 107.304 127.261 103.813 128.283 100.549C129.108 97.8162 129.466 94.9465 130.435 92.2459C130.588 90.4944 131.424 89.0615 131.97 87.4141C132.403 85.7368 132.482 84.0763 133.68 82.7201C134.693 80.8062 135.048 78.6178 136.301 76.817C137.009 75.2657 137.596 73.7873 138.448 72.2413C139.466 70.2207 140.352 68.1013 141.628 66.2315C142.661 64.7804 143.449 63.068 144.462 61.5571C145.706 58.807 147.725 56.5003 149.595 54.156C151.249 52.0521 152.33 49.5595 154.146 47.5688C156.178 44.9813 158.749 42.8619 160.662 40.1807C162.105 38.9871 163.462 37.8468 165.016 36.7727C167.718 34.9459 169.921 32.4741 172.784 30.8748C173.413 30.105 175.374 29.841 174.114 31.1153C172.735 31.9878 171.334 32.8668 170.099 33.92C168.869 35.4101 166.859 36.1057 165.958 37.8741C164.737 39.1392 163.1 39.8739 161.962 41.2678C160.38 42.8541 158.688 44.365 157.306 46.1294C156.243 47.6807 154.883 49.0602 153.79 50.6049C152.891 52.3278 151.477 53.6905 150.436 55.3106C149.814 56.8579 148.816 58.2466 147.801 59.5729C147.074 61.1215 145.863 62.3502 144.971 63.8091C144.356 65.4995 143.198 66.8751 142.621 68.5915C141.186 70.6498 140.019 72.8759 138.582 74.9342C137.849 76.5829 136.619 77.9443 136.304 79.7516C135.59 81.1793 134.733 82.5719 134.477 84.1725C133.175 86.1177 132.586 88.4036 132.13 90.6661C131.756 92.3564 130.887 94.0181 130.874 95.7423C130.666 97.8877 130.229 100.016 130.089 102.176C129.728 104.883 129.539 107.698 128.38 110.21C128.835 111.963 128.143 113.756 128.147 115.567C127.79 118.384 127.57 121.247 127.74 124.083C128.182 124.776 127.981 127.907 126.785 127.145H126.783ZM134.064 110.456C133.214 109.763 134.054 107.187 134.688 107.654C135.581 108.984 134.521 109.509 134.064 110.456ZM134.448 105.105C134.825 102.726 135.147 100.33 135.258 97.9293C136.204 94.0727 137.508 90.3124 138.648 86.5104C139.392 84.547 139.897 82.3808 141.216 80.7138C142.273 81.7593 140.309 83.5952 140.225 84.9969C139.578 86.7263 139.063 88.4361 138.401 90.159C138.074 91.8792 137.734 93.5279 137.023 95.1663C136.362 98.1491 136.304 101.259 135.269 104.154C135.769 105.165 134.17 107.618 134.448 105.105ZM347.539 94.3393C347.399 92.4227 349.29 95.2664 347.74 94.7034L347.62 94.5395L347.539 94.3393ZM347.256 92.2277C346.632 90.1108 346.238 87.9147 345.263 85.9188C344.86 84.2883 344.523 82.646 344.001 81.0441C343.678 79.3746 343.247 77.7427 342.678 76.1473C341.273 73.3908 340.586 70.3234 339.031 67.6306C337.767 65.1601 336.706 62.5739 335.165 60.2568C334.624 58.1517 336.791 60.5208 336.889 61.3867C338.574 63.8962 340.102 66.5475 341.055 69.4328C341.677 71.2843 343.013 72.8655 343.307 74.821C343.982 76.4282 344.641 78.0938 345.082 79.7959C345.447 81.771 346.135 83.6303 346.75 85.5287C347.261 87.6195 347.612 89.7715 347.78 91.9104C347.798 92.2186 347.426 92.9285 347.256 92.2277ZM143.753 74.8952C143.679 73.0397 145.319 71.5587 145.895 69.8319C147.132 67.1287 149.002 64.796 150.288 62.1175C151.392 59.7536 153.136 57.811 154.602 55.6851C155.383 53.7516 157.129 52.4617 158.298 50.7714C160.961 47.5506 163.979 44.6211 167.222 41.992C168.017 41.6682 169.189 39.9727 169.83 40.4512C168.682 41.953 167.665 43.5991 166.357 44.9865C164.868 46.4376 163.097 47.7834 162.349 49.7832C160.67 50.7792 159.892 52.6841 158.412 53.9323C156.994 55.2885 155.765 56.9346 154.086 57.9592C152.822 59.1217 152.484 61.0175 151.258 62.1461C151.096 63.6986 149.524 64.3162 149.375 65.8882C148.915 67.5773 147.428 68.6812 146.857 70.326C145.893 71.6939 145.787 73.4519 144.532 74.6585C144.174 75.0629 143.96 76.0823 143.753 74.8939V74.8952ZM333.832 57.9982C333.055 57.2688 333.161 55.4679 334.039 57.1622C334.642 57.7278 335.395 59.9382 334.125 58.3922L333.978 58.2024L333.832 57.9982ZM332.378 55.1741C331.315 54.5187 332.086 53.5396 332.627 54.7905C332.869 55.2352 333.018 55.936 332.378 55.1741ZM328.069 49.6766C327.193 48.6741 328.379 47.9264 328.756 49.3034C329.236 49.9041 328.405 50.2292 328.069 49.6766ZM326.215 46.9538C325.655 46.4714 324.137 44.1985 325.765 45.1906C326.252 45.8057 328.163 47.444 327.099 47.8731C326.72 47.6651 326.454 47.3023 326.215 46.9538ZM322.714 42.8892C321.881 42.2117 321.238 40.5305 322.633 41.9309C323.07 42.386 325.092 44.0256 324.014 44.2037C323.513 43.8397 323.122 43.3482 322.714 42.8879V42.8892ZM319.333 39.8258C317.066 37.4749 314.413 35.5375 312.094 33.2399C311.038 32.3974 308.84 31.5067 308.897 30.1414C312.466 31.6367 314.704 35.0551 317.714 37.3501C318.788 38.2863 320.524 39.5488 320.909 40.6735C320.255 40.8543 319.731 40.2483 319.333 39.8258ZM170.459 39.8193C171.256 38.3968 173.062 37.8728 174.344 36.9184C175.183 36.6154 176.849 34.5662 177.366 35.6792C175.786 36.5062 174.767 38.112 173.1 38.7817C172.502 39.0924 170.946 40.9336 170.459 39.8193ZM177.421 34.6429C178.287 33.552 180.016 33.3166 180.902 32.1126C183.015 30.9541 184.698 29.0089 187.092 28.3665C188.6 27.5799 189.983 26.6281 191.416 25.6984C193.017 24.9755 194.528 24.0055 196.208 23.4815C197.736 23.2916 198.795 21.8067 200.346 21.5207C204.451 20.6495 208.392 19.0684 212.428 17.902C214.004 17.4638 215.6 17.1414 217.189 16.6798C219.772 15.6916 222.47 14.9985 225.15 14.3237C229.677 13.2913 234.34 13.2159 238.935 12.6893C242.361 12.0612 245.882 12.3837 249.346 12.4331C252.664 12.6152 256.084 12.6646 259.227 13.8621C259.557 14.8334 257.221 13.6307 256.489 13.7945C250.26 13.2484 243.988 13.2081 237.744 13.4681C233.095 13.762 228.464 14.4628 224.004 15.8333C219.993 16.9216 215.992 18.1244 211.943 19.0229C210.168 19.7692 208.199 19.9629 206.402 20.7041C203.924 21.4856 201.463 22.3099 199.09 23.3722C197.488 23.8065 196.176 24.8103 194.615 25.3447C193.35 26.3784 191.94 26.8725 190.512 27.6228C188.664 28.5551 186.991 29.8059 185.178 30.7083C183.689 31.5925 182.007 32.1542 180.837 33.552C179.894 33.825 178.174 35.6948 177.421 34.6429ZM305.84 28.334C303.288 26.2835 300.279 24.943 297.517 23.224C295.933 22.8066 294.597 21.8925 293.403 20.7951C291.969 19.5209 290.198 18.7927 288.437 18.1049C287.409 18.0099 287.002 16.3352 288.115 17.2961C289.738 17.9449 291.324 18.2518 292.622 19.5274C294.357 19.9681 295.663 21.3607 297.436 21.7378C299.133 23.2058 301.046 24.4306 302.999 25.5307C304.064 26.7373 305.783 27.39 306.758 28.507C306.459 28.6786 306.107 28.4745 305.84 28.334ZM178.886 27.1248C179.647 25.7673 181.902 25.2407 183.197 24.1017C185.008 22.9757 186.963 22.0993 188.766 20.968C190.096 19.881 191.962 19.8004 193.379 18.8135C195.345 17.9566 197.392 17.2662 199.273 16.2377C201.225 15.8775 202.987 14.9309 204.872 14.3913C206.597 13.7867 208.341 13.4239 210.115 13.0351C212.529 11.9338 215.197 11.5281 217.713 10.696C219.521 10.1343 221.402 9.83389 223.203 9.30078C226.209 9.29948 229.067 8.05903 232.081 8.03173C232.457 8.99912 229.656 8.99132 228.799 9.33069C225.512 10.1525 222.193 10.8247 218.839 11.3058C217.204 11.8337 215.607 12.4383 213.936 12.8596C212.036 13.264 210.284 13.8972 208.432 14.4108C206.946 15.2534 205.241 15.4445 203.678 16.0622C200.499 17.1076 197.369 18.3649 194.335 19.7965C192.136 20.4037 190.154 21.5987 188.028 22.4243C186.447 23.5621 184.54 24.0822 182.952 25.2368C181.569 25.6581 180.211 27.1469 178.886 27.1248ZM276.83 17.7525C277.538 18.5639 276.901 16.8891 276.83 17.7525ZM283.277 15.8099C281.464 15.4796 279.861 14.589 278.042 14.2392C276.133 13.4824 274.155 12.8739 272.192 12.2628C268.587 11.4163 264.939 10.7623 261.296 10.103C259.081 9.58684 262.314 9.43731 262.974 9.71557C265.203 10.2838 267.521 10.211 269.749 10.7896C271.578 10.9781 273.287 11.3617 274.885 12.2316C276.511 12.9064 278.091 13.55 279.796 13.9674C281.589 14.5577 283.491 15.0544 285.105 16.0205C285.222 16.4964 283.537 15.9308 283.277 15.8099ZM264.581 15.1741C264.108 15.0037 261.42 14.7398 262.719 14.2665C263.604 14.7164 265.921 14.4901 265.957 15.3639C265.505 15.4874 264.987 15.4055 264.581 15.1741ZM254.983 9.47892C253.272 9.23447 251.567 8.80148 249.883 8.67796C251.602 8.06033 253.551 8.71176 255.359 8.65715C256.68 8.75857 258.509 8.98612 259.352 9.59724C257.92 9.8872 256.427 9.57644 254.983 9.47892ZM247.885 8.80018C246.703 7.98492 249.667 8.25017 248.16 8.85089L247.885 8.80018ZM233.271 8.22937C234.233 7.86399 236.803 7.43751 237.024 8.06293C235.859 8.32168 234.363 8.52713 233.271 8.22937ZM238.111 8.14745C239.17 7.9095 241.551 7.73137 241.981 8.30868C240.722 8.44131 239.328 8.52453 238.111 8.14745ZM330.022 196.752C329.749 195.72 328.331 197.857 329.806 197.024L329.942 196.894L330.022 196.752ZM123.011 139.709C122.476 140.568 122.47 139.179 123.011 139.709ZM122.028 127.945C122.283 128.372 120.813 127.787 122.028 127.945ZM357.027 104.397C356.907 105.498 356.212 103.42 357.027 104.397ZM122.366 101.817C121.919 102.908 121.173 100.807 122.366 101.817ZM123.526 96.9177C124.016 96.0934 121.038 97.4924 123.102 97.0946L123.335 97.0152L123.526 96.9177ZM124.3 94.4836C123.654 96.0023 123.256 92.1705 124.3 94.4836ZM123.785 92.0183C122.49 91.2512 122.87 92.6529 123.985 92.2212L123.954 92.1432L123.785 92.0183ZM123.785 90.9872C122.49 90.2188 122.87 91.6217 123.985 91.1888L123.954 91.112L123.785 90.9872ZM125.331 89.7169C125.035 88.5895 122.69 88.1474 124.305 89.566C124.533 89.7871 125.142 90.2383 125.331 89.7169ZM129.199 77.1693C128.725 76.3229 127.176 78.2017 128.799 77.5672C128.964 77.4892 129.18 77.3787 129.199 77.1693ZM129.199 74.2255C128.592 75.2293 128.505 73.1866 129.199 74.2255ZM132.81 68.5369C132.382 67.8503 131.987 69.5914 132.81 68.5369ZM137.065 60.301C136.617 61.3919 135.871 59.2907 137.065 60.301ZM138.789 56.5146C139.044 56.9424 137.573 56.3586 138.789 56.5146ZM149.313 43.5237C148.779 44.3819 148.772 42.9945 149.313 43.5237ZM153.38 38.9455C153.158 37.8702 152.362 40.329 153.38 38.9455ZM154.586 36.5543C154.566 37.8819 153.391 35.9796 154.586 36.5543ZM319.507 30.287C318.593 29.4003 318.403 30.7538 319.507 30.287ZM169.476 24.0224C169.73 24.4502 168.259 23.8663 169.476 24.0224ZM304.342 19.123C304.597 19.5508 303.126 18.9669 304.342 19.123ZM180.517 18.2531C179.981 19.1113 179.976 17.7226 180.517 18.2531ZM301.457 16.9788C300.008 16.1987 300.636 17.4404 301.714 17.1869L301.457 16.9788ZM183.501 16.2351C182.916 15.3067 181.176 16.3859 182.852 16.4626C183.005 16.4184 183.503 16.5081 183.501 16.2351ZM184.477 15.044C184.953 14.3874 187.395 14.7814 185.421 14.2418C184.509 13.8127 182.745 16.382 184.477 15.044ZM183.481 14.4004C183.033 13.4278 182.414 15.2534 183.481 14.4004ZM295.396 13.8842C295.063 12.9948 293.803 14.4446 295.175 14.0662L295.396 13.8842ZM190.316 12.8531C189.707 13.8569 189.621 11.8129 190.316 12.8531ZM192.841 10.562C191.923 9.00692 192.509 12.8375 192.981 10.7831L192.841 10.562ZM290.138 10.198C290.77 11.6296 288.476 9.52833 290.138 10.198ZM198.918 8.59084C199.006 10.1134 197.895 7.62214 198.918 8.59084ZM284.439 8.36979C283.68 7.70276 282.174 8.58174 283.957 8.46081L284.208 8.44001L284.439 8.36979ZM204.5 6.68205C204.005 5.86029 201.9 5.26607 203.431 6.55593C203.645 6.73406 204.41 7.22036 204.5 6.68205ZM273.997 4.34288C273.773 3.65504 271.784 2.74616 272.53 4.28437C273.167 3.82667 273.487 5.10483 273.997 4.34288ZM213.573 3.90859C213.828 4.33638 212.358 3.75256 213.573 3.90859ZM263.81 1.79436C263.082 0.882878 261.963 1.9556 261.227 1.92049C262.065 1.9569 263.024 2.11813 263.81 1.79436ZM228.223 1.5057C227.807 0.800962 226.234 1.63833 227.724 1.76446C227.863 1.74755 228.2 1.72675 228.223 1.5057ZM231.947 1.27296C231.445 0.630628 228.512 1.02201 230.674 1.31847C231.077 1.27426 231.655 1.70985 231.947 1.27296ZM256.895 1.07272C257.15 1.5005 255.68 0.916686 256.895 1.07272ZM354.645 157.844C353.548 156.709 355.324 156.651 354.935 157.858L354.812 157.879L354.645 157.844ZM192.965 7.79768C193.916 7.50772 193.367 8.26577 192.965 7.79768ZM219.972 0.891981C220.629 0.165133 221.825 1.12733 220.376 0.982999L220.166 0.962195L219.972 0.891981Z" fill="#2C9600"/>
<path d="M83.6094 148.909C80.5954 148.909 77.7803 148.323 75.1629 147.151C72.5441 145.976 70.2557 144.366 68.2975 142.32C66.3419 140.27 64.792 137.862 63.6477 135.095C62.5035 132.326 61.9314 129.374 61.9314 126.243C61.9314 123.112 62.5035 120.162 63.6477 117.391C64.792 114.621 66.3419 112.213 68.2975 110.167C70.2557 108.117 72.5441 106.508 75.1629 105.335C77.7803 104.159 80.5954 103.572 83.6094 103.572C87.1006 103.572 90.3213 104.356 93.2729 105.923C96.2232 107.487 98.6924 109.625 100.679 112.336L94.5368 117.121C93.3328 115.373 91.8127 114.004 89.9755 113.012C88.1369 112.017 86.1657 111.519 84.0619 111.519C82.2545 111.519 80.5382 111.896 78.9128 112.648C77.2862 113.4 75.8702 114.439 74.6636 115.763C73.4595 117.088 72.5116 118.654 71.8186 120.46C71.1282 122.267 70.7836 124.194 70.7836 126.243C70.7836 128.29 71.1282 130.215 71.8186 132.022C72.5116 133.829 73.4595 135.41 74.6636 136.765C75.8702 138.117 77.2862 139.186 78.9128 139.969C80.5382 140.753 82.2545 141.144 84.0619 141.144C86.4089 141.144 88.5452 140.514 90.4696 139.251C92.3966 137.986 93.9621 136.299 95.1661 134.19L101.132 139.428C99.2034 142.32 96.703 144.624 93.6318 146.34C90.5632 148.052 87.2215 148.909 83.6094 148.909Z" fill="#003884"/>
<path d="M162.454 147.828H150.622L130.483 120.189H119.28V147.828H109.799V83.7922H135.809C138.34 83.7922 140.735 84.2746 142.992 85.2381C145.249 86.2029 147.205 87.498 148.859 89.1233C150.515 90.7499 151.826 92.6626 152.791 94.8601C153.754 97.0549 154.237 99.4188 154.237 101.949C154.237 104.054 153.905 106.041 153.243 107.91C152.58 109.775 151.662 111.461 150.487 112.965C149.311 114.471 147.91 115.781 146.284 116.897C144.661 118.01 142.885 118.837 140.958 119.378L162.454 147.828ZM135.809 111.342C137.074 111.342 138.28 111.086 139.424 110.572C140.568 110.06 141.546 109.381 142.357 108.539C143.171 107.696 143.82 106.69 144.303 105.517C144.784 104.342 145.026 103.092 145.026 101.767C145.026 100.443 144.784 99.2082 144.303 98.0639C143.82 96.9197 143.171 95.9107 142.357 95.0369C141.546 94.1631 140.568 93.4714 139.424 92.9617C138.28 92.4494 137.074 92.1919 135.809 92.1919H119.28V111.431L135.809 111.342Z" fill="#217200"/>
<path d="M207.981 83.7922V92.2856H178.267V109.714H204.73V118.473H178.267V139.069H207.981V147.828H168.874V83.7922H207.981Z" fill="#003884"/>
<path d="M248.619 139.969C252.115 139.969 255.351 139.126 258.33 137.441C261.311 135.756 263.825 133.528 265.871 130.758L272.466 137.082C269.575 140.512 266.065 143.312 261.939 145.482C257.816 147.649 253.376 148.732 248.619 148.732C244.284 148.732 240.19 147.859 236.335 146.111C232.482 144.364 229.142 142.001 226.312 139.022C223.483 136.041 221.239 132.549 219.582 128.547C217.928 124.542 217.101 120.313 217.101 115.857C217.101 111.339 217.928 107.093 219.582 103.119C221.239 99.1456 223.483 95.67 226.312 92.6911C229.142 89.7096 232.482 87.347 236.335 85.602C240.19 83.8545 244.284 82.9807 248.619 82.9807C252.655 82.9807 256.464 83.7791 260.046 85.3732C263.627 86.9686 266.834 89.0607 269.663 91.6509L264.067 98.7867C262.08 96.679 259.761 94.9483 257.113 93.5961C254.463 92.2412 251.632 91.5625 248.619 91.5625C245.551 91.5625 242.676 92.21 239.996 93.5024C237.315 94.7962 234.982 96.5581 232.995 98.7867C231.009 101.013 229.428 103.587 228.252 106.51C227.079 109.431 226.494 112.546 226.494 115.857C226.494 119.168 227.079 122.284 228.252 125.203C229.428 128.123 231.009 130.682 232.995 132.88C234.982 135.078 237.315 136.81 239.996 138.075C242.676 139.338 245.551 139.969 248.619 139.969Z" fill="#003884"/>
<path d="M298.744 117.844L276.161 83.7922H287.453L303.441 107.816L319.423 83.7922H330.803L308.226 117.844V147.828H298.744V117.844Z" fill="#003884"/>
</svg>
